<?xml version="1.0" standalone="no"?>
<!DOCTYPE svg PUBLIC "-//W3C//DTD SVG 1.1//EN" "http://www.w3.org/Graphics/SVG/1.1/DTD/svg11.dtd">
<svg xmlns="http://www.w3.org/2000/svg">
<metadata>Generated by Fontastic.me</metadata>
<defs>
<font id="untitled-font-1" horiz-adv-x="512">
<font-face font-family="untitled-font-1" units-per-em="512" ascent="480" descent="-32"/>
<missing-glyph horiz-adv-x="512" />

<glyph unicode="&#97;" d="M403 351l0 29c0 1-1 132-147 132-146 0-147-131-147-132l0-29c-49 0-89-40-89-88 0-49 40-88 89-88l15 0c8 0 14 6 14 15l0 190c0 4 2 103 118 103 116 0 118-99 118-103l0-190c0-1 0-1 0-2l-53-87c-8 15-16 27-30 35-35 21-80 9-101-25-21-35-9-80 25-101 35-20 81-9 101 26l84 139 3 0c49 0 89 39 89 88 0 48-40 88-89 88z m-294-37l0-110c-33 0-59 27-59 59 0 32 26 58 59 58z m182-263c-12-21-40-28-60-16-21 13-28 40-16 61 13 21 40 27 61 15 21-13 28-40 15-60z m112 153l0 117c33 0 59-26 59-58 0-32-26-59-59-59z"/>
<glyph unicode="&#98;" d="M118 372l0-70-47 0c-8 0-15-7-15-16l0-272c0-8 7-15 15-15l373 0c9 0 16 7 16 15l0 272c0 9-7 16-16 16l-46 0 0 70c0 77-63 140-140 140-77 0-140-63-140-140z m311-342l-342 0 0 241 342 0z m-171 451c60 0 109-49 109-109l0-70-218 0 0 70c0 60 49 109 109 109z"/>
<glyph unicode="&#99;" d="M374 231l12 92-91 0 0 58c0 27 7 45 46 45l48 0 0 82c-8 1-37 4-71 4-70 0-119-43-119-122l0-67-80 0 0-92 80 0 0-237 96 0 0 237z"/>
<glyph unicode="&#100;" d="M512 416c-19-8-39-14-60-16 21 13 38 33 46 58-20-12-43-21-67-26-19 21-46 33-76 33-58 0-105-46-105-104 0-8 0-16 2-24-87 4-165 46-216 109-9-15-15-33-15-52 0-37 19-69 47-87-17 0-33 5-47 13l0-2c0-50 36-93 84-102-9-2-18-4-28-4-7 0-13 1-20 2 14-41 53-72 99-73-36-28-82-44-131-44-8 0-17 0-25 1 47-30 102-47 161-47 193 0 299 160 299 298 0 4 0 9 0 13 20 15 38 33 52 54z"/>
<glyph unicode="&#101;" d="M66 512l384 0c37 0 67-30 67-66l0-382c0-37-30-66-67-66l-384 0c-36 0-66 29-66 66l0 382c0 36 30 66 66 66z m310-57c-12 0-23-11-23-23l0-56c0-12 11-23 23-23l59 0c13 0 23 11 23 23l0 56c0 12-10 23-23 23z m82-160l-45 0c4-15 7-29 7-45 0-85-72-155-161-155-89 0-161 70-161 155 0 16 3 30 7 45l-48 0 0-218c0-11 10-20 21-20l360 0c11 0 20 9 20 20z m-199 61c-57 0-104-45-104-100 0-55 47-100 104-100 57 0 104 45 104 100 0 55-47 100-104 100z"/>
<glyph unicode="&#102;" d="M446 163c80 79 80 209 0 289-79 80-209 80-289 0-75-75-80-194-14-274l-137-137c-8-8-8-21 0-29 8-8 21-8 29 0l137 137c80-66 199-61 274 14z m-260 29c-64 63-64 167 0 231 64 64 168 64 231 0 64-64 64-168 0-231-63-64-167-64-231 0z"/>
<glyph unicode="&#103;" d="M0 440c0-9 7-16 16-16l49 0 31-353c0 0 0 0 0 0 0-35 29-63 64-63 30 0 55 20 62 48l68 0c7-28 32-48 62-48 35 0 64 29 64 64 0 35-29 64-64 64-30 0-55-20-62-48l-68 0c-7 28-32 48-62 48-14 0-26-4-37-12l-4 52c0 0 1 0 1 0 0 0 1 0 1 0l328 16c7 0 13 5 14 12l48 168c2 4 1 10-2 14-3 4-8 6-13 6l-52 0-29 100c-2 7-8 12-15 12l-112 0c-4 0-8-2-11-5l-44-43-73 0c-7 0-14-5-16-12l-12-52-32 0-4 49c-1 9-8 15-16 15l-64 0c-9 0-16-7-16-16z m352-336c18 0 32-14 32-32 0-18-14-32-32-32-18 0-32 14-32 32 0 18 14 32 32 32z m-192 0c18 0 32-14 32-32 0-18-14-32-32-32-18 0-32 14-32 32 0 18 14 32 32 32z m135 368l93 0 23-80-143 0-10 43z m-123-48l56 0 8-32-72 0z m260-64l43 0-39-137-317-15c-1 0-2 0-3 0l-13 152z"/>
<glyph unicode="&#104;" d="M0 464c0-9 7-16 16-16l49 0 31-353c0 0 0 0 0 0 0-35 29-63 64-63 30 0 55 20 62 48l68 0c7-28 32-48 62-48 35 0 64 29 64 64 0 35-29 64-64 64-30 0-55-20-62-48l-68 0c-7 28-32 48-62 48-14 0-26-4-37-12l-4 52c0 0 1 0 1 0 0 0 1 0 1 0l328 16c7 0 13 5 14 12l48 168c2 4 1 10-2 14-3 4-8 6-13 6l-396 0-4 49c-1 9-8 15-16 15l-64 0c-9 0-16-7-16-16z m352-336c18 0 32-14 32-32 0-18-14-32-32-32-18 0-32 14-32 32 0 18 14 32 32 32z m-192 0c18 0 32-14 32-32 0-18-14-32-32-32-18 0-32 14-32 32 0 18 14 32 32 32z m315 256l-39-137-317-15c-1 0-2 0-3 0l-13 152z"/>
<glyph unicode="&#105;" d="M314 255l187 188c16 15 16 41 0 57-16 16-41 16-57 0l-187-187-188 187c-15 16-41 16-57 0-16-16-16-42 0-57l187-188-187-187c-16-16-16-41 0-57 16-16 42-16 57 0l188 187 187-187c16-16 41-16 57 0 16 16 16 41 0 57z"/>
<glyph unicode="&#106;" d="M312 512l-112 0c-9 0-16-7-16-16l0-48-104 0c-9 0-16-7-16-16 0-9 7-16 16-16l16 0 0-400c0-9 7-16 16-16l288 0c9 0 16 7 16 16l0 400 16 0c9 0 16 7 16 16 0 9-7 16-16 16l-104 0 0 48c0 9-7 16-16 16z m72-96l0-384-256 0 0 384z m-168 32l0 32 80 0 0-32z m-8-384c9 0 16 7 16 16l0 272c0 9-7 16-16 16-9 0-16-7-16-16l0-272c0-9 7-16 16-16z m96 0c9 0 16 7 16 16l0 272c0 9-7 16-16 16-9 0-16-7-16-16l0-272c0-9 7-16 16-16z"/>
<glyph unicode="&#107;" d="M47 512l418 0c26 0 47-21 47-47l0-418c0-26-21-47-47-47l-418 0c-26 0-47 21-47 47l0 418c0 26 21 47 47 47z m105-266l73-73c3-3 7-4 10-4 4 0 7 1 10 4 5 6 5 15 0 20l-50 49 155 0c8 0 14 7 14 14 0 8-6 14-14 14l-154 0 49 49c5 5 5 14 0 20-5 5-14 5-20 0l-73-73c-3-3-4-7-4-10 0-4 1-8 4-10z"/>
<glyph unicode="&#108;" d="M465 512l-418 0c-26 0-47-21-47-47l0-418c0-26 21-47 47-47l418 0c26 0 47 21 47 47l0 418c0 26-21 47-47 47z m-105-266l-73-73c-3-3-7-4-10-4-4 0-7 1-10 4-5 6-5 15 0 20l50 49-155 0c-8 0-14 7-14 14 0 8 6 14 14 14l154 0-49 49c-5 5-5 14 0 20 5 5 14 5 20 0l73-73c3-3 4-7 4-10 0-4-1-8-4-10z"/>
<glyph unicode="&#109;" d="M430 2c9 0 16 7 16 16l0 430c0 9-7 16-16 16l-77 0-20 39c-3 6-8 9-14 9l-128 0c-6 0-11-3-14-9l-19-39-78 0c-9 0-16-7-16-16l0-430c0-9 7-16 16-16z m-229 478l108 0 32-64-172 0z m-105-48l46 0-13-24c-2-5-2-11 1-16 3-5 8-7 14-7l223 0c9 0 16 7 16 15 0 4-1 7-3 9l-11 23 45 0 0-398-318 0z m212-148l-69-68-36 36c-7 7-17 7-23 0-6-6-6-16 0-22l48-48c3-3 7-5 11-5 4 0 8 2 11 5l80 80c6 6 6 16 0 22-6 7-16 7-22 0z"/>
<glyph unicode="&#110;" d="M517 271l-185 185c-10 10-24 10-34 0-9-9-9-24 0-33l144-144-418 0c-13 0-24-10-24-23 0-13 11-24 24-24l421 0-147-145c-9-9-9-24 0-33 5-5 11-7 17-7 6 0 12 2 17 7l185 183c5 5 7 11 7 17 0 6-2 12-7 17z"/>
<glyph unicode="&#111;" d="M483 479l-30 0c-16 0-29-13-29-29l0-337c0-10 3-25 8-34l16-32c5-9 12-14 20-14 8 0 15 5 20 14l16 32c5 9 8 24 8 34l0 337c0 16-13 29-29 29z m0-29l0-44-30 0 0 44z m-5-358l-10-19-10 19c-2 5-5 15-5 21l0 263 30 0 0-263c0-6-3-16-5-21z m-419-70l280 0c16 0 30 13 30 29l0 410c0 16-14 29-30 29l-280 0c-16 0-30-13-30-29l0-44-14 0c-8 0-15-7-15-15 0-8 7-14 15-14l14 0 0-30-14 0c-8 0-15-6-15-14 0-8 7-15 15-15l14 0 0-29-14 0c-8 0-15-7-15-15 0-8 7-14 15-14l14 0 0-30-14 0c-8 0-15-6-15-14 0-8 7-15 15-15l14 0 0-29-14 0c-8 0-15-7-15-15 0-8 7-14 15-14l14 0 0-30-14 0c-8 0-15-6-15-14 0-8 7-15 15-15l14 0 0-44c0-16 14-29 30-29z m280 29l-59 0 0 410 59 0z m-280 103l15 0c8 0 14 6 14 14 0 8-6 15-14 15l-15 0 0 29 15 0c8 0 14 7 14 15 0 8-6 14-14 14l-15 0 0 30 15 0c8 0 14 6 14 14 0 8-6 15-14 15l-15 0 0 29 15 0c8 0 14 7 14 15 0 8-6 14-14 14l-15 0 0 30 15 0c8 0 14 6 14 14 0 8-6 15-14 15l-15 0 0 44 192 0 0-410-192 0 0 44 15 0c8 0 14 7 14 15 0 8-6 14-14 14l-15 0z"/>
<glyph unicode="&#112;" d="M21 0c4 0 8 1 12 3l117 52c10 4 24 14 32 21l320 321c7 7 10 15 10 24 0 8-3 17-10 23l-58 58c-6 7-15 10-23 10-9 0-17-3-24-10l-328-329c-8-8-17-21-22-32l-45-109c-4-12-1-20 2-23 3-6 10-9 17-9z m138 100l-59 58 271 272 59-59z m262 379l58-58-26-26-58 58z m-343-350c0 1 1 2 1 4l51-51-88-40z"/>
<glyph unicode="&#113;" d="M120 0l304 0c18 0 32 14 32 32l0 448c0 18-14 32-32 32l-304 0c-18 0-32-14-32-32l0-48-16 0c-9 0-16-7-16-16 0-9 7-16 16-16l16 0 0-32-16 0c-9 0-16-7-16-16 0-9 7-16 16-16l16 0 0-32-16 0c-9 0-16-7-16-16 0-9 7-16 16-16l16 0 0-32-16 0c-9 0-16-7-16-16 0-9 7-16 16-16l16 0 0-32-16 0c-9 0-16-7-16-16 0-9 7-16 16-16l16 0 0-32-16 0c-9 0-16-7-16-16 0-9 7-16 16-16l16 0 0-48c0-18 14-32 32-32z m304 32l-64 0 0 448 64 0z m-304 112l16 0c9 0 16 7 16 16 0 9-7 16-16 16l-16 0 0 32 16 0c9 0 16 7 16 16 0 9-7 16-16 16l-16 0 0 32 16 0c9 0 16 7 16 16 0 9-7 16-16 16l-16 0 0 32 16 0c9 0 16 7 16 16 0 9-7 16-16 16l-16 0 0 32 16 0c9 0 16 7 16 16 0 9-7 16-16 16l-16 0 0 48 208 0 0-448-208 0 0 48 16 0c9 0 16 7 16 16 0 9-7 16-16 16l-16 0z"/>
<glyph unicode="&#114;" d="M502 280l-173 185c-13 14-34 14-47 0-13-14-13-36 0-50l115-123-364 0c-18 0-33-16-33-35 0-20 15-36 33-36l367 0-118-124c-13-14-13-36 0-50 6-7 15-11 23-11 9 0 17 4 24 10l173 184c6 7 10 16 10 25 0 9-4 18-10 25z"/>
<glyph unicode="&#115;" d="M416 0c18 0 32 14 32 32l0 448c0 18-14 32-32 32l-208 0c-13 0-29-7-39-16l-89-89c-9-10-16-26-16-39l0-336c0-18 14-32 32-32z m0 480l0-448-320 0 0 336 80 0c18 0 32 14 32 32l0 80z m-240-23l0-57-57 0z m80-109l96 0c9 0 16 7 16 16 0 9-7 16-16 16l-96 0c-9 0-16-7-16-16 0-9 7-16 16-16z m96-48l-192 0c-9 0-16-7-16-16 0-9 7-16 16-16l192 0c9 0 16 7 16 16 0 9-7 16-16 16z m0-80l-192 0c-9 0-16-7-16-16 0-9 7-16 16-16l192 0c9 0 16 7 16 16 0 9-7 16-16 16z m0-80l-192 0c-9 0-16-7-16-16 0-9 7-16 16-16l192 0c9 0 16 7 16 16 0 9-7 16-16 16z"/>
<glyph unicode="&#116;" d="M494 471l-238-30-238 30c-4 1-9 0-13-3-3-3-5-7-5-12l0-369c0-8 6-15 14-16l240-30c1-1 1-1 2-1 1 0 1 0 2 1l240 30c8 1 14 8 14 16l0 369c0 5-2 9-5 12-4 3-8 4-13 3z m-462-32l208-27 0-339-208 27z m448-339l-208-27 0 339 208 27z m-402 264l128-15c1-1 1-1 2-1 8 0 15 6 16 14 1 8-5 16-14 17l-128 15c-9 2-17-4-18-13-1-8 5-16 14-17z m132-62l-128 15c-9 2-17-4-18-13-1-8 5-16 14-17l128-15c1-1 1-1 2-1 8 0 15 6 16 14 1 8-5 16-14 17z m0-77l-128 15c-9 2-17-4-18-13-1-8 5-16 14-17l128-15c1-1 1-1 2-1 8 0 15 6 16 14 1 8-5 16-14 17z m0-77l-128 15c-9 2-17-4-18-13-1-8 5-16 14-17l128-15c1-1 1-1 2-1 8 0 15 6 16 14 1 8-5 16-14 17z m94 200c1 0 1 0 2 0l128 16c9 1 15 9 14 17-1 9-9 15-18 13l-128-15c-9-1-15-9-14-17 1-8 8-14 16-14z m0-77c1 0 1 0 2 1l128 15c9 1 15 9 14 17-1 9-9 15-18 13l-128-15c-9-1-15-9-14-17 1-8 8-14 16-14z m0-77c1 0 1 0 2 1l128 15c9 1 15 9 14 17-1 9-9 15-18 13l-128-15c-9-1-15-9-14-17 1-8 8-14 16-14z m126-31l-128-15c-9-1-15-9-14-17 1-8 8-14 16-14 1 0 1 0 2 1l128 15c9 1 15 9 14 17-1 9-9 15-18 13z"/>
</font>
</defs>
</svg>
