<?xml version="1.0" encoding="utf-8"?>
<!-- Generator: Adobe Illustrator 16.0.0, SVG Export Plug-In . SVG Version: 6.00 Build 0)  -->
<!DOCTYPE svg PUBLIC "-//W3C//DTD SVG 1.1//EN" "http://www.w3.org/Graphics/SVG/1.1/DTD/svg11.dtd">
<svg version="1.1" id="Layer_1" xmlns="http://www.w3.org/2000/svg" xmlns:xlink="http://www.w3.org/1999/xlink" x="0px" y="0px"
	 width="16.139px" height="7.061px" viewBox="0 0 16.139 7.061" enable-background="new 0 0 16.139 7.061" xml:space="preserve">
<g>
	<g>
		<path fill="#9D9D9D" d="M2.018,0H0.504C0.227,0,0,0.226,0,0.504c0,0.278,0.227,0.504,0.504,0.504h1.514
			c0.278,0,0.504-0.226,0.504-0.504C2.521,0.226,2.296,0,2.018,0z M5.548,1.008h10.087c0.278,0,0.504-0.226,0.504-0.504
			C16.139,0.226,15.913,0,15.635,0H5.548C5.27,0,5.043,0.226,5.043,0.504C5.043,0.783,5.27,1.008,5.548,1.008z M2.018,3.026H0.504
			C0.227,3.026,0,3.252,0,3.53c0,0.279,0.227,0.504,0.504,0.504h1.514c0.278,0,0.504-0.226,0.504-0.504
			C2.521,3.252,2.296,3.026,2.018,3.026z M15.635,3.026H5.548c-0.278,0-0.505,0.226-0.505,0.504c0,0.279,0.227,0.504,0.505,0.504
			h10.087c0.278,0,0.504-0.226,0.504-0.504C16.139,3.252,15.913,3.026,15.635,3.026z M2.018,6.053H0.504
			C0.227,6.053,0,6.277,0,6.557c0,0.278,0.227,0.504,0.504,0.504h1.514c0.278,0,0.504-0.226,0.504-0.504
			C2.521,6.277,2.296,6.053,2.018,6.053z M15.635,6.053H5.548c-0.278,0-0.505,0.225-0.505,0.504c0,0.278,0.227,0.504,0.505,0.504
			h10.087c0.278,0,0.504-0.226,0.504-0.504C16.139,6.277,15.913,6.053,15.635,6.053z"/>
	</g>
</g>
</svg>
