<?xml version="1.0" encoding="utf-8"?>
<!-- Generator: Adobe Illustrator 16.0.0, SVG Export Plug-In . SVG Version: 6.00 Build 0)  -->
<!DOCTYPE svg PUBLIC "-//W3C//DTD SVG 1.1//EN" "http://www.w3.org/Graphics/SVG/1.1/DTD/svg11.dtd">
<svg version="1.1" id="Layer_1" xmlns="http://www.w3.org/2000/svg" xmlns:xlink="http://www.w3.org/1999/xlink" x="0px" y="0px"
	 width="70px" height="75px" viewBox="15 12 70 75" enable-background="new 15 12 70 75" xml:space="preserve">
<g id="Layer_x0020_1">
	<path fill="#00558C" d="M50.75,45.25L50.75,45.25L50.5,45.5H40.25c-1.75,0-3,1.25-3,3c0,0.25,0,0.5,0,0.5h-6.5l-9.5-16.5l-2,1.25
		L29.5,51.5h20.25l0,0h5l5.75-7.75L63,55c0,2-2,2.5-2,2.5l-6.5,2v-6h-6H21h-6c0,11,0,22.25,0,33.5h6c0-1.5,0,4.5,0-27.5h27.5v1.75
		c-1,0-1.75,0.75-2.5,1.5l0,0L33,81l0,0c-0.25,0.5-0.5,1.25-0.5,2.25c0,2,1.5,3.75,3.75,3.75c1.25,0,2.5-0.75,3-1.5l0,0l9.25-13V87
		h6V68l3-0.5v2.75V87h4.75V70.25H77.5V87H82V70.25V69.5l3-29h-4.5l-2.75,25H71.5c2,0,3.75-1.25,4.75-3c0.25-0.5,0.5-1.25,0.5-2
		l-3-18.25c-0.5-3.75-4-6.75-8-6.75h-3.5H62c-3,0-4.75,2.25-6.5,4.25L50.75,45.25z M55.5,13l7.75,2.5l-0.75,2.75l-5.75,2.5l4.5,1.25
		l-0.75,2.5L52.75,22l0.75-2.75l6-2.5l-4.75-1.5L55.5,13z M63.5,22.5l6.25-2.25l0.75,2.25L68,27l3.75-1.25l0.75,1.75L66.25,30
		l-1-2.25l2.5-4.75L64,24.5L63.5,22.5z M58.25,27h5v1.75l-3,2.75h3V33h-5v-1.75l3-2.75h-3V27z M57.25,35.75
		c-1.25-2.5-4-4.25-6.75-4.25c-4.25,0-7.75,3.5-7.75,7.75c0,1.75,0.75,3.5,1.75,4.75H50L57.25,35.75z M65.082,12h5v1.75l-3,2.75h3
		V18h-5v-1.75l3-2.75h-3V12z"/>
</g>
</svg>
