<?xml version="1.0" encoding="utf-8"?>
<!-- Generator: Adobe Illustrator 16.0.0, SVG Export Plug-In . SVG Version: 6.00 Build 0)  -->
<!DOCTYPE svg PUBLIC "-//W3C//DTD SVG 1.1//EN" "http://www.w3.org/Graphics/SVG/1.1/DTD/svg11.dtd">
<svg version="1.1" id="Layer_1" xmlns="http://www.w3.org/2000/svg" xmlns:xlink="http://www.w3.org/1999/xlink" x="0px" y="0px"
	 width="119.969px" height="119.969px" viewBox="0 0 119.969 119.969" enable-background="new 0 0 119.969 119.969"
	 xml:space="preserve">
<g>
	<g>
		<g>
			<path fill="#C0353F" d="M75.677,44.291c-1.911-1.911-5.01-1.911-6.924,0l-8.77,8.776l-8.772-8.776
				c-1.911-1.911-5.007-1.911-6.921,0c-1.909,1.912-1.909,5.01,0,6.922l8.775,8.772l-8.775,8.772c-1.909,1.911-1.909,5.007,0,6.918
				c0.959,0.956,2.21,1.435,3.463,1.435c1.252,0,2.503-0.479,3.458-1.435l8.772-8.771l8.77,8.771
				c0.959,0.956,2.212,1.435,3.463,1.435c1.252,0,2.505-0.479,3.461-1.435c1.912-1.911,1.912-5.007,0-6.918l-8.774-8.772
				l8.774-8.772C77.589,49.301,77.589,46.203,75.677,44.291z"/>
		</g>
	</g>
	<g>
		<path fill="#C0353F" d="M59.984,119.969c-33.075,0-59.983-26.909-59.983-59.985C0.001,26.909,26.909,0,59.984,0
			c33.076,0,59.984,26.909,59.984,59.983C119.969,93.06,93.06,119.969,59.984,119.969z M59.984,9
			C31.872,9,9.001,31.871,9.001,59.983c0,28.113,22.871,50.985,50.983,50.985c28.113,0,50.984-22.872,50.984-50.985
			C110.969,31.871,88.097,9,59.984,9z"/>
	</g>
</g>
</svg>
