<?xml version="1.0" encoding="utf-8"?>
<!-- Generator: Adobe Illustrator 16.0.0, SVG Export Plug-In . SVG Version: 6.00 Build 0)  -->
<!DOCTYPE svg PUBLIC "-//W3C//DTD SVG 1.1//EN" "http://www.w3.org/Graphics/SVG/1.1/DTD/svg11.dtd">
<svg version="1.1" id="Layer_1" xmlns="http://www.w3.org/2000/svg" xmlns:xlink="http://www.w3.org/1999/xlink" x="0px" y="0px"
	 width="119.969px" height="119.969px" viewBox="0 0 119.969 119.969" enable-background="new 0 0 119.969 119.969"
	 xml:space="preserve">
<g>
	<g>
		<g>
			<path fill="#00558C" d="M51.463,75.014c0.978,0.916,2.253,1.374,3.53,1.374c1.275,0,2.555-0.458,3.53-1.374l24.953-23.435
				c1.95-1.83,1.95-4.796,0-6.625c-1.95-1.83-5.107-1.83-7.06,0L54.993,65.075L43.551,54.326c-1.95-1.83-5.108-1.83-7.061,0
				c-1.947,1.832-1.947,4.795,0,6.628L51.463,75.014z"/>
		</g>
	</g>
	<g>
		<path fill="#00558C" d="M59.983,119.969C26.909,119.969,0,93.06,0,59.983C0,26.909,26.909,0,59.983,0
			c33.076,0,59.985,26.909,59.985,59.983C119.969,93.06,93.06,119.969,59.983,119.969z M59.983,9C31.871,9,9,31.871,9,59.983
			c0,28.113,22.871,50.985,50.983,50.985c28.113,0,50.985-22.872,50.985-50.985C110.969,31.871,88.097,9,59.983,9z"/>
	</g>
</g>
</svg>
