<?xml version="1.0" encoding="iso-8859-1"?>
<!-- Generator: Adobe Illustrator 16.0.0, SVG Export Plug-In . SVG Version: 6.00 Build 0)  -->
<!DOCTYPE svg PUBLIC "-//W3C//DTD SVG 1.1//EN" "http://www.w3.org/Graphics/SVG/1.1/DTD/svg11.dtd">
<svg version="1.1" xmlns="http://www.w3.org/2000/svg" xmlns:xlink="http://www.w3.org/1999/xlink" x="0px" y="0px"
	 width="35.016px" height="32px" viewBox="0 0 35.016 32" style="enable-background:new 0 0 35.016 32;" xml:space="preserve">
<g id="Layer_12">
	<g>
		<path style="fill:#231F20;" d="M32.998,0.763h-2.016c-1.111,0-2.016,0.897-2.016,2v23c0,0.704,0.238,1.711,0.557,2.342
			l1.113,2.211c0.297,0.586,0.789,0.922,1.354,0.922s1.059-0.336,1.354-0.922l1.113-2.211c0.318-0.631,0.559-1.638,0.559-2.342v-23
			C35.016,1.661,34.109,0.763,32.998,0.763z M32.998,2.763v3h-2.016v-3H32.998z M32.654,27.211l-0.664,1.316l-0.664-1.316
			c-0.176-0.352-0.344-1.055-0.344-1.447v-18h2.016v18C32.998,26.156,32.832,26.859,32.654,27.211z"/>
		<path style="fill:#231F20;" d="M4.032,32h19.153c1.111,0,2.018-0.896,2.018-2V2c0-1.103-0.906-2-2.018-2H4.032
			C2.921,0,2.016,0.897,2.016,2v3H1.008C0.451,5,0,5.449,0,6c0,0.553,0.451,1,1.008,1h1.008v2H1.008C0.451,9,0,9.449,0,10
			c0,0.553,0.451,1,1.008,1h1.008v2H1.008C0.451,13,0,13.449,0,14c0,0.553,0.451,1,1.008,1h1.008v2H1.008C0.451,17,0,17.449,0,18
			c0,0.553,0.451,1,1.008,1h1.008v2H1.008C0.451,21,0,21.448,0,22c0,0.553,0.451,1,1.008,1h1.008v2H1.008C0.451,25,0,25.449,0,26
			c0,0.553,0.451,1,1.008,1h1.008v3C2.016,31.104,2.921,32,4.032,32z M23.186,30h-4.031V2h4.031V30z M4.032,23h1.008
			c0.557,0,1.008-0.447,1.008-1c0-0.552-0.451-1-1.008-1H4.032v-2h1.008c0.557,0,1.008-0.447,1.008-1c0-0.551-0.451-1-1.008-1H4.032
			v-2h1.008c0.557,0,1.008-0.447,1.008-1c0-0.552-0.451-1-1.008-1H4.032v-2h1.008c0.557,0,1.008-0.447,1.008-1
			c0-0.552-0.451-1-1.008-1H4.032V7h1.008c0.557,0,1.008-0.447,1.008-1c0-0.552-0.451-1-1.008-1H4.032V2h13.105v28H4.032v-3h1.008
			c0.557,0,1.008-0.447,1.008-1c0-0.551-0.451-1-1.008-1H4.032V23z"/>
	</g>
</g>
<g id="Layer_1">
</g>
</svg>
