<?xml version="1.0" encoding="iso-8859-1"?>
<!-- Generator: Adobe Illustrator 16.0.0, SVG Export Plug-In . SVG Version: 6.00 Build 0)  -->
<!DOCTYPE svg PUBLIC "-//W3C//DTD SVG 1.1//EN" "http://www.w3.org/Graphics/SVG/1.1/DTD/svg11.dtd">
<svg version="1.1" xmlns="http://www.w3.org/2000/svg" xmlns:xlink="http://www.w3.org/1999/xlink" x="0px" y="0px" width="25px"
	 height="32px" viewBox="0 0 25 32" style="enable-background:new 0 0 25 32;" xml:space="preserve">
<g id="Layer_15">
	<g>
		<path style="fill:#231F20;" d="M4,32h19c1.103,0,2-0.896,2-2V2c0-1.103-0.897-2-2-2H4C2.897,0,2,0.897,2,2v3H1
			C0.448,5,0,5.448,0,6c0,0.552,0.448,1,1,1h1v2H1c-0.552,0-1,0.448-1,1c0,0.552,0.448,1,1,1h1v2H1C0.448,13,0,13.448,0,14
			c0,0.552,0.448,1,1,1h1v2H1c-0.552,0-1,0.447-1,1s0.448,1,1,1h1v2H1c-0.552,0-1,0.447-1,1s0.448,1,1,1h1v2H1c-0.552,0-1,0.447-1,1
			s0.448,1,1,1h1v3C2,31.104,2.897,32,4,32z M23,30h-4V2h4V30z M4,23h1c0.552,0,1-0.447,1-1s-0.448-1-1-1H4v-2h1
			c0.552,0,1-0.447,1-1s-0.448-1-1-1H4v-2h1c0.552,0,1-0.448,1-1C6,13.448,5.552,13,5,13H4v-2h1c0.552,0,1-0.448,1-1
			c0-0.553-0.448-1-1-1H4V7h1c0.552,0,1-0.448,1-1c0-0.553-0.448-1-1-1H4V2h13v28H4v-3h1c0.552,0,1-0.447,1-1s-0.448-1-1-1H4V23z"/>
	</g>
</g>
<g id="Layer_1">
</g>
</svg>
