<?xml version="1.0" encoding="iso-8859-1"?>
<!-- Generator: Adobe Illustrator 16.0.0, SVG Export Plug-In . SVG Version: 6.00 Build 0)  -->
<!DOCTYPE svg PUBLIC "-//W3C//DTD SVG 1.1//EN" "http://www.w3.org/Graphics/SVG/1.1/DTD/svg11.dtd">
<svg version="1.1" xmlns="http://www.w3.org/2000/svg" xmlns:xlink="http://www.w3.org/1999/xlink" x="0px" y="0px"
	 width="28.763px" height="28.763px" viewBox="0 0 28.763 28.763" style="enable-background:new 0 0 28.763 28.763;"
	 xml:space="preserve">
<g id="Layer_36">
	<g>
		<path style="fill:#231F20;" d="M14.381,28.763c3.841,0,7.453-1.496,10.169-4.213c2.716-2.716,4.212-6.327,4.212-10.169
			s-1.496-7.453-4.212-10.168C21.834,1.496,18.223,0,14.381,0C10.54,0,6.928,1.496,4.212,4.213C1.496,6.928,0,10.539,0,14.381
			s1.496,7.453,4.212,10.169C6.928,27.267,10.54,28.763,14.381,28.763z M5.483,5.483c2.377-2.377,5.537-3.687,8.898-3.687
			c3.361,0,6.521,1.31,8.898,3.688c2.377,2.375,3.686,5.535,3.686,8.896c0,3.362-1.309,6.521-3.686,8.897
			c-2.377,2.378-5.537,3.687-8.898,3.687c-3.361,0-6.521-1.309-8.898-3.687c-2.377-2.376-3.686-5.535-3.686-8.897
			C1.797,11.02,3.106,7.859,5.483,5.483z"/>
		<path style="fill:#231F20;" d="M10.757,21.571c0.009,0,0.019,0,0.028,0c0.244,0,0.479-0.099,0.648-0.275L22.669,9.611
			c0.345-0.357,0.333-0.928-0.024-1.271s-0.927-0.332-1.271,0.025L10.829,19.332l-4.3-5.082c-0.321-0.379-0.889-0.426-1.267-0.105
			c-0.379,0.32-0.426,0.889-0.106,1.267l4.944,5.843C10.264,21.448,10.503,21.571,10.757,21.571z"/>
	</g>
</g>
<g id="Layer_1">
</g>
</svg>
