<?xml version="1.0" encoding="iso-8859-1"?>
<!-- Generator: Adobe Illustrator 16.0.0, SVG Export Plug-In . SVG Version: 6.00 Build 0)  -->
<!DOCTYPE svg PUBLIC "-//W3C//DTD SVG 1.1//EN" "http://www.w3.org/Graphics/SVG/1.1/DTD/svg11.dtd">
<svg version="1.1" xmlns="http://www.w3.org/2000/svg" xmlns:xlink="http://www.w3.org/1999/xlink" x="0px" y="0px" width="23px"
	 height="25.005px" viewBox="0 0 23 25.005" style="enable-background:new 0 0 23 25.005;" xml:space="preserve">
<g id="Layer_1_1_">
	<g>
		<path style="fill:#231F20;" d="M18.688,7.872V6.44C18.688,6.376,18.605,0,11.5,0S4.312,6.376,4.312,6.44v1.431
			C1.935,7.872,0,9.798,0,12.165s1.935,4.293,4.312,4.293h0.719c0.397,0,0.719-0.32,0.719-0.716V9.661V8.587V6.44
			c0-0.205,0.065-5.009,5.75-5.009c5.65,0,5.748,4.807,5.75,5.009v2.146v7.155c0,0.023,0.004,0.046,0.006,0.068l-2.568,4.271
			c-0.383-0.756-0.781-1.309-1.477-1.723c-1.699-1.014-3.911-0.461-4.929,1.231c-1.018,1.692-0.463,3.894,1.237,4.907
			s3.91,0.461,4.93-1.232l4.094-6.807h0.145c2.377,0,4.312-1.926,4.312-4.293S21.064,7.872,18.688,7.872z M4.312,9.661v5.366
			c-1.585,0-2.875-1.283-2.875-2.861s1.29-2.862,2.875-2.862V9.661z M13.215,22.53c-0.609,1.016-1.937,1.348-2.957,0.738
			c-1.02-0.607-1.353-1.928-0.742-2.943s1.938-1.348,2.957-0.739S13.826,21.515,13.215,22.53z M18.688,15.026V9.303
			c1.586,0,2.875,1.284,2.875,2.862S20.273,15.026,18.688,15.026z"/>
	</g>
</g>
<g id="Layer_1">
</g>
</svg>
