<?xml version="1.0" encoding="iso-8859-1"?>
<!-- Generator: Adobe Illustrator 16.0.0, SVG Export Plug-In . SVG Version: 6.00 Build 0)  -->
<!DOCTYPE svg PUBLIC "-//W3C//DTD SVG 1.1//EN" "http://www.w3.org/Graphics/SVG/1.1/DTD/svg11.dtd">
<svg version="1.1" xmlns="http://www.w3.org/2000/svg" xmlns:xlink="http://www.w3.org/1999/xlink" x="0px" y="0px"
	 width="17.655px" height="17.657px" viewBox="0 0 17.655 17.657" style="enable-background:new 0 0 17.655 17.657;"
	 xml:space="preserve">
<g id="Layer_30">
	<g>
		<path style="fill:#231F20;" d="M0.235,11.686L16.789,0.098h0.001c0.004-0.002,0.008-0.002,0.012-0.006
			c0.015-0.008,0.03-0.014,0.045-0.021c0.017-0.01,0.033-0.018,0.05-0.025c0.021-0.01,0.043-0.018,0.066-0.023
			c0.02-0.006,0.038-0.008,0.059-0.01c0.015-0.004,0.027-0.008,0.04-0.008C17.068,0.004,17.075,0,17.082,0
			c0.024-0.002,0.049,0.004,0.073,0.006c0.021,0.002,0.039,0.002,0.06,0.008c0.017,0.002,0.033,0.006,0.05,0.014
			c0.019,0.004,0.035,0.012,0.053,0.02c0.022,0.01,0.046,0.014,0.067,0.027c0.004,0.002,0.006,0.006,0.01,0.008
			c0.002,0.002,0.005,0.002,0.007,0.002c0.008,0.006,0.012,0.014,0.019,0.02c0.01,0.006,0.02,0.014,0.028,0.021
			s0.02,0.008,0.028,0.016c0.003,0.006,0.006,0.01,0.01,0.016c0.02,0.018,0.036,0.039,0.053,0.061
			c0.011,0.014,0.021,0.029,0.031,0.045c0.011,0.018,0.022,0.031,0.031,0.049c0.005,0.012,0.007,0.023,0.012,0.035
			c0.008,0.02,0.015,0.041,0.021,0.061c0.002,0.01,0.009,0.02,0.012,0.031c0.003,0.02,0.003,0.037,0.005,0.057
			s0.002,0.039,0.002,0.061c0,0.018,0.005,0.033,0.002,0.051l-1.65,16.555c-0.019,0.184-0.128,0.346-0.291,0.434
			c-0.164,0.086-0.36,0.084-0.522-0.004l-6.072-3.312c-0.013-0.008-0.021-0.02-0.033-0.029L7.09,17.4
			c-0.019,0.029-0.041,0.051-0.063,0.076c-0.007,0.008-0.012,0.016-0.02,0.023c-0.045,0.045-0.098,0.078-0.153,0.104
			c-0.013,0.006-0.026,0.01-0.039,0.014c-0.062,0.023-0.125,0.039-0.19,0.039H6.623l0,0l0,0c-0.064,0-0.128-0.016-0.189-0.037
			c-0.019-0.008-0.035-0.016-0.053-0.023c-0.018-0.01-0.036-0.014-0.054-0.023c-0.017-0.012-0.025-0.029-0.041-0.043
			c-0.03-0.021-0.058-0.047-0.082-0.076c-0.022-0.027-0.041-0.055-0.058-0.086c-0.017-0.029-0.03-0.061-0.042-0.094
			c-0.011-0.037-0.018-0.072-0.021-0.111c-0.002-0.02-0.012-0.037-0.012-0.057v-4.416H0.551c-0.24,0-0.453-0.156-0.525-0.387
			C-0.047,12.074,0.037,11.822,0.235,11.686z M7.175,15.201l6.018-9.502l-6.018,6.65V15.201z M14.988,16.223l1.337-13.408
			L9.672,13.322L14.988,16.223z M6.378,11.586l7.036-7.779L2.303,11.586H6.378z"/>
	</g>
</g>
<g id="Layer_1">
</g>
</svg>
