<?xml version="1.0" encoding="utf-8"?>
<!-- Generator: Adobe Illustrator 16.0.0, SVG Export Plug-In . SVG Version: 6.00 Build 0)  -->
<!DOCTYPE svg PUBLIC "-//W3C//DTD SVG 1.1//EN" "http://www.w3.org/Graphics/SVG/1.1/DTD/svg11.dtd">
<svg version="1.1" id="Layer_1" xmlns="http://www.w3.org/2000/svg" xmlns:xlink="http://www.w3.org/1999/xlink" x="0px" y="0px"
	 width="24.721px" height="24.72px" viewBox="0 0 24.721 24.72" enable-background="new 0 0 24.721 24.72" xml:space="preserve">
<path d="M21.797,17.057c3.897-3.896,3.897-10.238,0-14.134c-3.896-3.897-10.236-3.897-14.134,0
	C4.005,6.58,3.781,12.392,6.992,16.314l-6.699,6.699c-0.391,0.391-0.391,1.022,0,1.414c0.39,0.389,1.022,0.389,1.413,0l6.699-6.7
	C12.327,20.938,18.139,20.715,21.797,17.057z M9.077,15.643c-3.118-3.117-3.118-8.189,0-11.308c3.117-3.118,8.189-3.118,11.307,0
	c3.117,3.117,3.118,8.189,0,11.308C17.267,18.76,12.194,18.76,9.077,15.643z"/>
</svg>
