<?xml version="1.0" encoding="iso-8859-1"?>
<!-- Generator: Adobe Illustrator 16.0.0, SVG Export Plug-In . SVG Version: 6.00 Build 0)  -->
<!DOCTYPE svg PUBLIC "-//W3C//DTD SVG 1.1//EN" "http://www.w3.org/Graphics/SVG/1.1/DTD/svg11.dtd">
<svg version="1.1" xmlns="http://www.w3.org/2000/svg" xmlns:xlink="http://www.w3.org/1999/xlink" x="0px" y="0px"
	 width="18.166px" height="23.057px" viewBox="0 0 18.166 23.057" style="enable-background:new 0 0 18.166 23.057;"
	 xml:space="preserve">
<g id="Layer_2">
	<g>
		<path style="fill:#231F20;" d="M2.795,6.289v3.144H0.698C0.312,9.433,0,9.746,0,10.132v12.227c0,0.386,0.312,0.698,0.698,0.698
			h16.769c0.387,0,0.699-0.312,0.699-0.698V10.132c0-0.386-0.312-0.699-0.699-0.699h-2.096V6.289C15.371,2.821,12.551,0,9.083,0
			S2.795,2.821,2.795,6.289z M16.77,21.66H1.397V10.83H16.77V21.66z M9.083,1.398c2.696,0,4.892,2.194,4.892,4.891v3.144H4.192
			V6.289C4.192,3.592,6.386,1.398,9.083,1.398z"/>
	</g>
</g>
<g id="Layer_1">
</g>
</svg>
