<?xml version="1.0" encoding="iso-8859-1"?>
<!-- Generator: Adobe Illustrator 16.0.0, SVG Export Plug-In . SVG Version: 6.00 Build 0)  -->
<!DOCTYPE svg PUBLIC "-//W3C//DTD SVG 1.1//EN" "http://www.w3.org/Graphics/SVG/1.1/DTD/svg11.dtd">
<svg version="1.1" xmlns="http://www.w3.org/2000/svg" xmlns:xlink="http://www.w3.org/1999/xlink" x="0px" y="0px"
	 width="51.994px" height="63.992px" viewBox="0 0 51.994 63.992" style="enable-background:new 0 0 51.994 63.992;"
	 xml:space="preserve">
<g id="Layer_27">
	<g>
		<path style="fill:#231F20;" d="M45.994,0H5.999C2.691,0,0,2.691,0,5.999v6v45.994c0,3.309,2.691,5.999,5.999,5.999h39.995
			c3.309,0,6-2.69,6-5.999V11.999v-6C51.994,2.691,49.303,0,45.994,0z M3.999,5.999c0-1.103,0.896-2,2-2h39.995
			c1.104,0,2.001,0.897,2.001,2v6c0,1.103-0.896,2-2.001,2H5.999c-1.104,0-2-0.897-2-2V5.999z M45.994,59.994H5.999
			c-1.104,0-2-0.896-2-2.001V17.628c0.629,0.226,1.295,0.37,2,0.37h39.995c0.705,0,1.37-0.145,2.001-0.37v40.365
			C47.995,59.098,47.099,59.994,45.994,59.994z"/>
		<path style="fill:#231F20;" d="M19.997,27.996h-1.999v-1.999c0-1.104-0.896-2-2-2s-2,0.896-2,2v1.999h-1.999c-1.105,0-2,0.896-2,2
			c0,1.105,0.895,2,2,2h1.999v2.001c0,1.104,0.896,1.999,2,1.999s2-0.896,2-1.999v-2.001h1.999c1.105,0,2-0.895,2-2
			C21.997,28.892,21.103,27.996,19.997,27.996z"/>
		<path style="fill:#231F20;" d="M39.995,27.996h-7.999c-1.105,0-1.999,0.896-1.999,2c0,1.105,0.894,2,1.999,2h7.999
			c1.105,0,2-0.895,2-2C41.995,28.892,41.101,27.996,39.995,27.996z"/>
		<path style="fill:#231F20;" d="M39.995,41.995h-7.999c-1.105,0-1.999,0.895-1.999,1.999c0,1.107,0.894,2.001,1.999,2.001h7.999
			c1.105,0,2-0.894,2-2.001C41.995,42.89,41.101,41.995,39.995,41.995z"/>
		<path style="fill:#231F20;" d="M39.995,49.995h-7.999c-1.105,0-1.999,0.894-1.999,1.999s0.894,2,1.999,2h7.999
			c1.105,0,2-0.895,2-2S41.101,49.995,39.995,49.995z"/>
		<path style="fill:#231F20;" d="M21.411,42.581c-0.781-0.781-2.047-0.781-2.827,0l-2.586,2.586l-2.586-2.586
			c-0.78-0.781-2.046-0.781-2.827,0c-0.781,0.782-0.781,2.046,0,2.827l2.586,2.587l-2.586,2.585c-0.781,0.782-0.781,2.047,0,2.827
			c0.391,0.392,0.902,0.587,1.414,0.587s1.023-0.195,1.413-0.587l2.586-2.584l2.586,2.584c0.39,0.392,0.901,0.587,1.413,0.587
			s1.023-0.195,1.414-0.587c0.781-0.78,0.781-2.045,0-2.827l-2.586-2.585l2.586-2.587C22.192,44.627,22.192,43.363,21.411,42.581z"
			/>
	</g>
</g>
<g id="Layer_1">
</g>
</svg>
