<?xml version="1.0" encoding="iso-8859-1"?>
<!-- Generator: Adobe Illustrator 16.0.0, SVG Export Plug-In . SVG Version: 6.00 Build 0)  -->
<!DOCTYPE svg PUBLIC "-//W3C//DTD SVG 1.1//EN" "http://www.w3.org/Graphics/SVG/1.1/DTD/svg11.dtd">
<svg version="1.1" xmlns="http://www.w3.org/2000/svg" xmlns:xlink="http://www.w3.org/1999/xlink" x="0px" y="0px"
	 width="44.316px" height="44.316px" viewBox="0 0 44.316 44.316" style="enable-background:new 0 0 44.316 44.316;"
	 xml:space="preserve">
<g id="Layer_10">
	<g>
		<path style="fill:#231F20;" d="M19.389,34.623h5.539v-4.156h-5.539V34.623z"/>
		<path style="fill:#231F20;" d="M9.693,20.773h5.54v-4.155h-5.54V20.773z"/>
		<path style="fill:#231F20;" d="M19.389,27.697h5.539v-4.154h-5.539V27.697z"/>
		<path style="fill:#231F20;" d="M9.693,34.623h5.54v-4.156h-5.54V34.623z"/>
		<path style="fill:#231F20;" d="M9.693,27.697h5.54v-4.154h-5.54V27.697z"/>
		<path style="fill:#231F20;" d="M19.389,20.773h5.539v-4.155h-5.539V20.773z"/>
		<path style="fill:#231F20;" d="M29.083,34.623h5.54v-4.156h-5.54V34.623z"/>
		<path style="fill:#231F20;" d="M40.625,4.154h-6.002v-2.77c0-0.766-0.62-1.385-1.386-1.385c-0.765,0-1.385,0.619-1.385,1.385v2.77
			h-8.31v-2.77c0-0.766-0.62-1.385-1.385-1.385s-1.385,0.619-1.385,1.385v2.77h-8.31v-2.77C12.464,0.619,11.843,0,11.079,0
			c-0.765,0-1.386,0.619-1.386,1.385v2.77h-6C1.652,4.154,0,5.804,0,7.847v32.774c0,2.043,1.652,3.695,3.693,3.695h36.932
			c2.039,0,3.691-1.652,3.691-3.695V7.847C44.316,5.804,42.664,4.154,40.625,4.154z M41.547,40.621c0,0.512-0.414,0.926-0.922,0.926
			H3.693c-0.51,0-0.924-0.414-0.924-0.926V7.847c0-0.509,0.414-0.923,0.924-0.923h6v2.77c0,0.766,0.621,1.385,1.386,1.385
			c0.764,0,1.385-0.619,1.385-1.385v-2.77h8.31v2.77c0,0.766,0.62,1.385,1.385,1.385s1.385-0.619,1.385-1.385v-2.77h8.31v2.77
			c0,0.766,0.62,1.385,1.385,1.385c0.766,0,1.386-0.619,1.386-1.385v-2.77h6.002c0.508,0,0.922,0.414,0.922,0.923V40.621z"/>
		<path style="fill:#231F20;" d="M29.083,20.773h5.54v-4.155h-5.54V20.773z"/>
		<path style="fill:#231F20;" d="M29.083,27.697h5.54v-4.154h-5.54V27.697z"/>
	</g>
</g>
<g id="Layer_1">
</g>
</svg>
