<?xml version="1.0" encoding="utf-8"?>
<!-- Generator: Adobe Illustrator 16.0.0, SVG Export Plug-In . SVG Version: 6.00 Build 0)  -->
<!DOCTYPE svg PUBLIC "-//W3C//DTD SVG 1.1//EN" "http://www.w3.org/Graphics/SVG/1.1/DTD/svg11.dtd">
<svg version="1.1" id="Layer_1" xmlns="http://www.w3.org/2000/svg" xmlns:xlink="http://www.w3.org/1999/xlink" x="0px" y="0px"
	 width="23.027px" height="23.538px" viewBox="0.785 0 23.027 23.538" enable-background="new 0.785 0 23.027 23.538"
	 xml:space="preserve">
<g id="Layer_1_1_">
</g>
<g id="Layer_1_2_">
</g>
<g>
	<path fill="#231F20" d="M21.893,2.608h-3.201V1.399c0-0.771-0.628-1.399-1.4-1.399c-0.773,0-1.4,0.628-1.4,1.399v1.209H8.707V1.399
		C8.707,0.628,8.079,0,7.305,0c-0.771,0-1.4,0.628-1.4,1.399v1.209H2.705c-1.062,0-1.92,0.856-1.92,1.92v17.089
		c0,1.062,0.857,1.921,1.92,1.921h19.189c1.061,0,1.918-0.859,1.918-1.921V4.528C23.811,3.466,22.951,2.608,21.893,2.608z
		 M8.756,18.615H5.818v-2.102h2.938V18.615z M8.756,14.613H5.818v-2.158h2.938V14.613z M8.756,10.555H5.818V8.568h2.938V10.555z
		 M13.735,18.615h-2.937v-2.102h2.937V18.615z M13.735,14.613h-2.937v-2.158h2.937V14.613z M13.735,10.555h-2.937V8.568h2.937
		V10.555z M18.773,18.615h-2.938v-2.102h2.938V18.615z M18.773,14.613h-2.938v-2.158h2.938V14.613z M18.773,10.555h-2.938V8.568
		h2.938V10.555z"/>
</g>
</svg>
