<?xml version="1.0" encoding="iso-8859-1"?>
<!-- Generator: Adobe Illustrator 16.0.0, SVG Export Plug-In . SVG Version: 6.00 Build 0)  -->
<!DOCTYPE svg PUBLIC "-//W3C//DTD SVG 1.1//EN" "http://www.w3.org/Graphics/SVG/1.1/DTD/svg11.dtd">
<svg version="1.1" xmlns="http://www.w3.org/2000/svg" xmlns:xlink="http://www.w3.org/1999/xlink" x="0px" y="0px" width="25px"
	 height="23px" viewBox="0 0 25 23" style="enable-background:new 0 0 25 23;" xml:space="preserve">
<g id="Layer_39">
	<g>
		<path style="fill:#231F20;" d="M24.607,8.036c-0.244-0.141-0.543-0.14-0.785,0.005l-5.463,3.263V8.724
			c0-0.438-0.35-0.793-0.781-0.793h-1.984c0.746-0.843,1.203-1.953,1.203-3.173C16.797,2.135,14.693,0,12.109,0
			C9.891,0,8.031,1.575,7.548,3.68C7.06,3.36,6.481,3.172,5.859,3.172c-1.723,0-3.125,1.424-3.125,3.172
			c0,0.579,0.156,1.119,0.423,1.587H0.781C0.35,7.931,0,8.286,0,8.724v9.518c0,0.367,0.25,0.689,0.604,0.771L17.4,22.98
			C17.461,22.994,17.52,23,17.578,23c0.176,0,0.346-0.059,0.486-0.172c0.186-0.15,0.295-0.379,0.295-0.621v-2.578l5.463,3.262
			c0.242,0.145,0.541,0.146,0.785,0.006C24.85,22.754,25,22.492,25,22.207V8.724C25,8.44,24.85,8.176,24.607,8.036z M12.109,1.586
			c1.723,0,3.125,1.423,3.125,3.172c0,1.75-1.402,3.173-3.125,3.173c-1.724,0-3.125-1.423-3.125-3.173
			C8.984,3.009,10.386,1.586,12.109,1.586z M8.625,7.931H8.562C8.57,7.917,8.579,7.903,8.587,7.889
			C8.6,7.903,8.613,7.917,8.625,7.931z M4.297,6.344c0-0.874,0.701-1.586,1.562-1.586S7.422,5.47,7.422,6.344
			c0,0.875-0.701,1.587-1.562,1.587S4.297,7.219,4.297,6.344z M23.438,20.82l-5.463-3.262c-0.242-0.145-0.541-0.146-0.783-0.006
			c-0.244,0.143-0.395,0.404-0.395,0.689v2.967L1.562,17.611V9.517h15.234v3.172c0,0.285,0.15,0.547,0.395,0.689
			c0.242,0.141,0.541,0.141,0.783-0.006l5.463-3.262V20.82z"/>
	</g>
</g>
<g id="Layer_1">
</g>
</svg>
