<?xml version="1.0" encoding="iso-8859-1"?>
<!-- Generator: Adobe Illustrator 16.0.0, SVG Export Plug-In . SVG Version: 6.00 Build 0)  -->
<!DOCTYPE svg PUBLIC "-//W3C//DTD SVG 1.1//EN" "http://www.w3.org/Graphics/SVG/1.1/DTD/svg11.dtd">
<svg version="1.1" xmlns="http://www.w3.org/2000/svg" xmlns:xlink="http://www.w3.org/1999/xlink" x="0px" y="0px" width="64px"
	 height="56px" viewBox="0 0 64 56" style="enable-background:new 0 0 64 56;" xml:space="preserve">
<g id="Layer_31">
	<g>
		<path d="M0,2c0,1.105,0.896,2,2,2h6.165L12,48.174c0,0.002,0,0.004,0,0.006c0,4.328,3.645,7.82,7.996,7.82
			c3.719,0,6.849-2.555,7.739-6h8.528c0.892,3.445,4.017,6,7.736,6c4.411,0,8-3.588,8-8c0-4.41-3.589-8-8-8
			c-3.72,0-6.845,2.557-7.736,6h-8.528c-0.891-3.443-4.016-6-7.735-6c-1.696,0-3.269,0.535-4.563,1.439l-0.561-6.451
			C14.917,34.99,14.956,35,14.998,35c0.033,0,0.066,0,0.1-0.002l41-2c0.854-0.041,1.59-0.625,1.825-1.447l6-21
			c0.173-0.604,0.052-1.254-0.326-1.754C63.218,8.295,62.628,8,62,8H12.529l-0.537-6.172C11.902,0.793,11.037,0,10,0H2
			C0.896,0,0,0.896,0,2z M44,44c2.206,0,4,1.795,4,4c0,2.207-1.794,4-4,4s-4-1.793-4-4C40,45.795,41.794,44,44,44z M20,44
			c2.206,0,4,1.795,4,4c0,2.207-1.794,4-4,4s-4-1.793-4-4C16,45.795,17.794,44,20,44z M59.349,12l-4.878,17.072l-39.568,1.93
			c-0.127,0.006-0.249,0.027-0.368,0.057L12.877,12H59.349z"/>
	</g>
</g>
<g id="Layer_1">
</g>
</svg>
