<?xml version="1.0" encoding="iso-8859-1"?>
<!-- Generator: Adobe Illustrator 16.0.0, SVG Export Plug-In . SVG Version: 6.00 Build 0)  -->
<!DOCTYPE svg PUBLIC "-//W3C//DTD SVG 1.1//EN" "http://www.w3.org/Graphics/SVG/1.1/DTD/svg11.dtd">
<svg version="1.1" xmlns="http://www.w3.org/2000/svg" xmlns:xlink="http://www.w3.org/1999/xlink" x="0px" y="0px" width="64px"
	 height="62px" viewBox="0 0 64 62" style="enable-background:new 0 0 64 62;" xml:space="preserve">
<g id="Layer_32">
	<g>
		<path d="M0,8c0,1.104,0.896,2,2,2h6.165L12,54.173c0,0.003,0,0.005,0,0.007c0,4.328,3.645,7.82,7.996,7.82
			c3.719,0,6.849-2.556,7.739-6h8.528c0.892,3.444,4.017,6,7.736,6c4.411,0,8-3.589,8-8s-3.589-8-8-8c-3.72,0-6.845,2.556-7.736,6
			h-8.528c-0.891-3.444-4.016-6-7.735-6c-1.696,0-3.269,0.534-4.563,1.438l-0.561-6.45C14.917,40.99,14.956,41,14.998,41
			c0.033,0,0.066-0.001,0.1-0.002l41-2c0.854-0.042,1.59-0.625,1.825-1.448l6-21c0.173-0.604,0.052-1.253-0.326-1.754
			C63.218,14.295,62.628,14,62,14h-6.491L51.923,1.45C51.678,0.592,50.893,0,50,0H36c-0.53,0-1.039,0.211-1.415,0.586L29.172,6H20
			c-0.918,0-1.718,0.625-1.94,1.515L16.438,14h-3.909l-0.537-6.173C11.902,6.793,11.036,6,10,6H2C0.896,6,0,6.896,0,8z M44,50
			c2.206,0,4,1.794,4,4s-1.794,4-4,4s-4-1.794-4-4S41.794,50,44,50z M20,50c2.206,0,4,1.794,4,4s-1.794,4-4,4s-4-1.794-4-4
			S17.794,50,20,50z M36.828,4h11.663l2.857,10H33.562l-1.347-5.387L36.828,4z M21.562,10h6.877l1,4h-8.877L21.562,10z M53.993,18
			h0.006h0.007h5.343l-4.878,17.072l-39.568,1.93c-0.127,0.006-0.249,0.027-0.368,0.056L12.877,18H53.993z"/>
	</g>
</g>
<g id="Layer_1">
</g>
</svg>
