<?xml version="1.0" encoding="iso-8859-1"?>
<!-- Generator: Adobe Illustrator 16.0.0, SVG Export Plug-In . SVG Version: 6.00 Build 0)  -->
<!DOCTYPE svg PUBLIC "-//W3C//DTD SVG 1.1//EN" "http://www.w3.org/Graphics/SVG/1.1/DTD/svg11.dtd">
<svg version="1.1" xmlns="http://www.w3.org/2000/svg" xmlns:xlink="http://www.w3.org/1999/xlink" x="0px" y="0px" width="48px"
	 height="64px" viewBox="0 0 48 64" style="enable-background:new 0 0 48 64;" xml:space="preserve">
<g id="Layer_24">
	<g>
		<path style="fill:#231F20;" d="M44,64c2.205,0,4-1.794,4-4V4c0-2.206-1.795-4-4-4H18c-1.639,0-3.668,0.841-4.828,2L2,13.171
			C0.842,14.33,0,16.36,0,18v42c0,2.206,1.795,4,4,4H44z M44,4v56l0,0H4V18h10c2.205,0,4-1.794,4-4V4H44z M14,6.828V14H6.828
			L14,6.828z"/>
		<path style="fill:#231F20;" d="M20.566,27.337h19.686"/>
		<path style="fill:#231F20;" d="M40.252,28.427H20.566c-0.604,0-1.092-0.487-1.092-1.09c0-0.604,0.488-1.092,1.092-1.092h19.686
			c0.602,0,1.092,0.487,1.092,1.092C41.344,27.939,40.854,28.427,40.252,28.427z"/>
		<path style="fill:#231F20;" d="M20.566,31.187h19.686"/>
		<path style="fill:#231F20;" d="M40.252,32.276H20.566c-0.604,0-1.092-0.487-1.092-1.09c0-0.604,0.488-1.092,1.092-1.092h19.686
			c0.602,0,1.092,0.488,1.092,1.092C41.344,31.789,40.854,32.276,40.252,32.276z"/>
		<path style="fill:#231F20;" d="M18.281,22.096c-0.269-0.218-0.666-0.176-0.885,0.095l-5.863,7.248l-3.852-3.115
			c-0.271-0.219-0.666-0.178-0.884,0.094c-0.22,0.27-0.178,0.664,0.093,0.884l4.355,3.522c0.136,0.11,0.306,0.152,0.467,0.132
			c0.162-0.014,0.317-0.09,0.428-0.228l6.238-7.711c0.113-0.141,0.152-0.314,0.131-0.48C18.497,22.371,18.422,22.209,18.281,22.096z
			"/>
		<path style="fill:#231F20;" d="M10.131,27.953v-0.944h3.018l1.137-1.404H9.43c-0.389,0-0.703,0.315-0.703,0.703v0.51
			L10.131,27.953z"/>
		<path style="fill:#231F20;" d="M14.434,28.327v2.984h-4.303v-1.04l-1.404-1.136v2.879c0,0.388,0.314,0.701,0.703,0.701h5.706
			c0.388,0,0.702-0.313,0.702-0.701v-5.423L14.434,28.327z"/>
		<path style="fill:#231F20;" d="M20.566,38.247h19.686"/>
		<path style="fill:#231F20;" d="M40.252,39.339H20.566c-0.604,0-1.092-0.488-1.092-1.092c0-0.603,0.488-1.09,1.092-1.09h19.686
			c0.602,0,1.092,0.487,1.092,1.09C41.344,38.851,40.854,39.339,40.252,39.339z"/>
		<path style="fill:#231F20;" d="M20.566,42.097h19.686"/>
		<path style="fill:#231F20;" d="M40.252,43.188H20.566c-0.604,0-1.092-0.488-1.092-1.092c0-0.603,0.488-1.09,1.092-1.09h19.686
			c0.602,0,1.092,0.487,1.092,1.09C41.344,42.7,40.854,43.188,40.252,43.188z"/>
		<path style="fill:#231F20;" d="M18.281,33.007c-0.269-0.217-0.666-0.176-0.885,0.095l-5.863,7.249l-3.852-3.117
			c-0.271-0.218-0.666-0.176-0.884,0.094c-0.22,0.27-0.178,0.666,0.093,0.885l4.355,3.521c0.136,0.111,0.306,0.152,0.467,0.134
			c0.162-0.014,0.317-0.091,0.428-0.229l6.238-7.711c0.113-0.141,0.152-0.314,0.131-0.479
			C18.497,33.282,18.422,33.119,18.281,33.007z"/>
		<path style="fill:#231F20;" d="M10.131,38.864v-0.943h3.018l1.137-1.404H9.43c-0.389,0-0.703,0.313-0.703,0.701v0.511
			L10.131,38.864z"/>
		<path style="fill:#231F20;" d="M14.434,39.238v2.985h-4.303v-1.04l-1.404-1.137v2.878c0,0.388,0.314,0.703,0.703,0.703h5.706
			c0.388,0,0.702-0.315,0.702-0.703v-5.423L14.434,39.238z"/>
		<path style="fill:#231F20;" d="M20.566,49.607h19.686"/>
		<path style="fill:#231F20;" d="M40.252,50.699H20.566c-0.604,0-1.092-0.487-1.092-1.092c0-0.603,0.488-1.09,1.092-1.09h19.686
			c0.602,0,1.092,0.487,1.092,1.09C41.344,50.212,40.854,50.699,40.252,50.699z"/>
		<path style="fill:#231F20;" d="M20.566,53.458h19.686"/>
		<path style="fill:#231F20;" d="M40.252,54.549H20.566c-0.604,0-1.092-0.487-1.092-1.091s0.488-1.091,1.092-1.091h19.686
			c0.602,0,1.092,0.487,1.092,1.091S40.854,54.549,40.252,54.549z"/>
		<path style="fill:#231F20;" d="M18.281,44.368c-0.269-0.218-0.666-0.176-0.885,0.095l-5.863,7.248l-3.852-3.115
			c-0.271-0.22-0.666-0.178-0.884,0.094c-0.22,0.27-0.178,0.664,0.093,0.884l4.355,3.521c0.136,0.111,0.306,0.152,0.467,0.133
			c0.162-0.014,0.317-0.091,0.428-0.228l6.238-7.712c0.113-0.14,0.152-0.313,0.131-0.479C18.497,44.644,18.422,44.481,18.281,44.368
			z"/>
		<path style="fill:#231F20;" d="M10.131,50.226v-0.944h3.018l1.137-1.404H9.43c-0.389,0-0.703,0.313-0.703,0.702v0.51
			L10.131,50.226z"/>
		<path style="fill:#231F20;" d="M14.434,50.599v2.985h-4.303v-1.04l-1.404-1.136v2.877c0,0.39,0.314,0.703,0.703,0.703h5.706
			c0.388,0,0.702-0.313,0.702-0.703v-5.421L14.434,50.599z"/>
		<path style="fill:#231F20;" d="M26,18.472h12c1.104,0,2-0.896,2-2s-0.896-2-2-2H26c-1.104,0-2,0.896-2,2S24.896,18.472,26,18.472z
			"/>
	</g>
</g>
<g id="Layer_1">
</g>
</svg>
