<?xml version="1.0" encoding="iso-8859-1"?>
<!-- Generator: Adobe Illustrator 16.0.0, SVG Export Plug-In . SVG Version: 6.00 Build 0)  -->
<!DOCTYPE svg PUBLIC "-//W3C//DTD SVG 1.1//EN" "http://www.w3.org/Graphics/SVG/1.1/DTD/svg11.dtd">
<svg version="1.1" xmlns="http://www.w3.org/2000/svg" xmlns:xlink="http://www.w3.org/1999/xlink" x="0px" y="0px"
	 width="12.186px" height="26.001px" viewBox="0 0 12.186 26.001" style="enable-background:new 0 0 12.186 26.001;"
	 xml:space="preserve">
<g id="Layer_42">
	<g>
		<path style="fill:#231F20;" d="M11.729,15.665c-0.168-0.465-0.436-0.953-0.811-1.475c-0.195-0.254-0.406-0.512-0.631-0.775
			c-0.242-0.284-0.525-0.578-0.826-0.856c-0.301-0.297-0.613-0.576-0.93-0.832c-0.258-0.21-0.498-0.401-0.789-0.632
			c-0.531-0.426-0.971-0.798-1.323-1.114c-0.308-0.279-0.556-0.542-0.753-0.8C5.468,8.936,5.34,8.727,5.23,8.453
			C5.183,8.36,5.163,8.264,5.163,8.142c0-0.099,0.018-0.188,0.054-0.266c0.071-0.152,0.171-0.263,0.331-0.364
			c0.305-0.198,0.625-0.201,0.885-0.097c0.184,0.072,0.333,0.181,0.4,0.258c0.111,0.167,0.16,0.312,0.16,0.469
			c0,0.675,0.27,1.283,0.786,1.759c0.982,0.911,2.58,0.914,3.568-0.001c0.512-0.476,0.783-1.083,0.783-1.758
			c0-0.79-0.156-1.55-0.482-2.291c-0.502-1.015-1.24-1.841-2.199-2.455C8.676,2.906,7.822,2.607,6.904,2.493V0.812
			C6.904,0.364,6.541,0,6.092,0C5.643,0,5.279,0.364,5.279,0.812v1.677C4.735,2.555,4.22,2.682,3.752,2.877
			C2.701,3.279,1.798,3.958,1.035,4.934c-0.316,0.46-0.569,0.961-0.75,1.488C0.096,6.967,0,7.546,0,8.142
			c0,0.735,0.161,1.493,0.48,2.254c0.372,0.877,0.974,1.731,1.761,2.514c0.342,0.376,0.719,0.736,1.124,1.076l1.088,0.904
			c0.552,0.43,0.977,0.789,1.303,1.102c0.312,0.295,0.585,0.584,0.778,0.816c0.184,0.232,0.311,0.441,0.416,0.709
			c0.047,0.094,0.071,0.197,0.071,0.316c0,0.113-0.021,0.213-0.049,0.277c-0.072,0.15-0.184,0.275-0.332,0.377
			c-0.151,0.096-0.312,0.139-0.521,0.139c-0.145,0-0.284-0.023-0.379-0.057c-0.172-0.072-0.318-0.182-0.392-0.27
			c-0.142-0.213-0.159-0.354-0.159-0.439c0-0.691-0.271-1.309-0.785-1.787c-0.983-0.91-2.58-0.912-3.574,0.006
			c-0.509,0.479-0.778,1.094-0.778,1.781c0,0.777,0.157,1.525,0.472,2.244c0.483,1.027,1.228,1.859,2.205,2.471
			c0.786,0.504,1.641,0.812,2.55,0.93v1.684c0,0.449,0.363,0.812,0.812,0.812c0.449,0,0.812-0.363,0.812-0.812v-1.682
			c0.52-0.068,1.042-0.195,1.571-0.398c1.076-0.459,1.959-1.143,2.623-2.033c0.723-0.975,1.088-2.057,1.088-3.215
			C12.186,17.126,12.027,16.374,11.729,15.665z M9.793,20.106c-0.488,0.654-1.146,1.162-1.926,1.494
			c-1.512,0.578-3.021,0.4-4.268-0.396c-0.716-0.449-1.255-1.051-1.595-1.771c-0.217-0.492-0.326-1.021-0.326-1.572
			c0-0.24,0.082-0.424,0.261-0.592c0.195-0.18,0.412-0.266,0.683-0.266c0.27,0,0.485,0.084,0.678,0.262
			c0.183,0.172,0.264,0.355,0.264,0.596c0,0.459,0.145,0.91,0.473,1.396c0.289,0.361,0.651,0.635,1.11,0.824
			c0.779,0.287,1.676,0.217,2.39-0.24c0.4-0.273,0.705-0.619,0.914-1.053c0.129-0.297,0.193-0.619,0.193-0.955
			c0-0.369-0.078-0.717-0.205-0.969c-0.139-0.355-0.344-0.703-0.641-1.076c-0.248-0.301-0.559-0.631-0.922-0.975
			c-0.364-0.348-0.829-0.742-1.403-1.189l-1.068-0.888c-0.346-0.29-0.67-0.601-0.99-0.949c-0.665-0.663-1.149-1.344-1.438-2.022
			C1.744,9.207,1.625,8.661,1.625,8.142c0-0.415,0.065-0.813,0.197-1.188c0.133-0.391,0.319-0.76,0.522-1.058
			c0.549-0.7,1.218-1.205,2.013-1.51c0.511-0.214,1.086-0.323,1.707-0.323c0.928,0,1.776,0.238,2.515,0.704
			c0.701,0.45,1.244,1.058,1.598,1.769c0.219,0.501,0.33,1.041,0.33,1.606c0,0.224-0.082,0.397-0.262,0.565
			C9.852,9.069,9.268,9.065,8.883,8.709c-0.184-0.17-0.264-0.344-0.264-0.567c0-0.476-0.145-0.935-0.475-1.427
			C7.854,6.355,7.48,6.083,7.035,5.905C6.292,5.609,5.398,5.672,4.671,6.143c-0.415,0.264-0.726,0.614-0.929,1.05
			C3.607,7.487,3.538,7.806,3.538,8.142c0,0.372,0.08,0.723,0.207,0.967C3.884,9.469,4.1,9.827,4.39,10.186
			c0.245,0.32,0.551,0.646,0.938,0.999c0.374,0.337,0.837,0.73,1.427,1.202c0.262,0.207,0.499,0.396,0.752,0.602
			c0.275,0.223,0.549,0.467,0.83,0.745c0.271,0.252,0.512,0.5,0.713,0.738c0.207,0.24,0.4,0.479,0.562,0.689
			c0.273,0.379,0.471,0.734,0.602,1.094c0.229,0.547,0.346,1.088,0.346,1.605C10.561,18.663,10.303,19.419,9.793,20.106z"/>
	</g>
</g>
<g id="Layer_1">
</g>
</svg>
