<?xml version="1.0" encoding="iso-8859-1"?>
<!-- Generator: Adobe Illustrator 16.0.0, SVG Export Plug-In . SVG Version: 6.00 Build 0)  -->
<!DOCTYPE svg PUBLIC "-//W3C//DTD SVG 1.1//EN" "http://www.w3.org/Graphics/SVG/1.1/DTD/svg11.dtd">
<svg version="1.1" xmlns="http://www.w3.org/2000/svg" xmlns:xlink="http://www.w3.org/1999/xlink" x="0px" y="0px"
	 width="43.792px" height="43.793px" viewBox="0 0 43.792 43.793" style="enable-background:new 0 0 43.792 43.793;"
	 xml:space="preserve">
<g id="Layer_29">
	<g>
		<path style="fill:#231F20;" d="M42.932,16.52l-5.982-2.393V1.369C36.949,0.613,36.337,0,35.581,0H8.211
			C7.455,0,6.843,0.613,6.843,1.369v12.758L0.86,16.52C0.325,16.734,0.002,17.248,0,17.791h0v24.633
			c0,0.756,0.613,1.369,1.369,1.369h41.055c0.756,0,1.368-0.613,1.368-1.369V17.791h-0.001C43.79,17.248,43.467,16.734,42.932,16.52
			z M39.655,18.157l-2.706,1.681v-2.762L39.655,18.157z M34.213,2.737v12.338c0,0.003,0,0.006,0,0.008v6.453l-12.317,7.646
			L9.58,21.536v-6.453c0-0.002,0-0.005,0-0.008V2.737H34.213z M6.843,19.838l-2.706-1.681l2.706-1.081V19.838z M2.737,41.056V20.511
			l18.438,11.443c0.221,0.137,0.471,0.206,0.722,0.206c0.25,0,0.5-0.069,0.721-0.206l18.438-11.443v20.545H2.737z"/>
		<path style="fill:#231F20;" d="M24.633,8.212h5.475c0.756,0,1.368-0.613,1.368-1.369s-0.612-1.368-1.368-1.368h-5.475
			c-0.756,0-1.368,0.612-1.368,1.368S23.877,8.212,24.633,8.212z"/>
		<path style="fill:#231F20;" d="M13.685,13.686h16.422c0.756,0,1.368-0.613,1.368-1.369c0-0.755-0.612-1.368-1.368-1.368H13.685
			c-0.756,0-1.369,0.613-1.369,1.368C12.316,13.072,12.929,13.686,13.685,13.686z"/>
		<path style="fill:#231F20;" d="M13.685,19.159h16.422c0.756,0,1.368-0.612,1.368-1.368s-0.612-1.368-1.368-1.368H13.685
			c-0.756,0-1.369,0.612-1.369,1.368S12.929,19.159,13.685,19.159z"/>
	</g>
</g>
<g id="Layer_1">
</g>
</svg>
