<?xml version="1.0" encoding="iso-8859-1"?>
<!-- Generator: Adobe Illustrator 16.0.0, SVG Export Plug-In . SVG Version: 6.00 Build 0)  -->
<!DOCTYPE svg PUBLIC "-//W3C//DTD SVG 1.1//EN" "http://www.w3.org/Graphics/SVG/1.1/DTD/svg11.dtd">
<svg version="1.1" xmlns="http://www.w3.org/2000/svg" xmlns:xlink="http://www.w3.org/1999/xlink" x="0px" y="0px"
	 width="37.086px" height="37.086px" viewBox="0 0 37.086 37.086" style="enable-background:new 0 0 37.086 37.086;"
	 xml:space="preserve">
<g id="Layer_33">
	<path style="fill:#231F20;" d="M22.703,18.543L36.224,5.022c1.149-1.149,1.149-3.013,0-4.159c-1.147-1.15-3.011-1.15-4.159,0
		L18.543,14.384L5.021,0.863c-1.148-1.15-3.012-1.15-4.159,0c-1.149,1.146-1.149,3.01,0,4.159l13.521,13.521L0.862,32.064
		c-1.149,1.149-1.149,3.013,0,4.159c1.147,1.15,3.011,1.15,4.159,0l13.521-13.521l13.521,13.521c1.148,1.15,3.012,1.15,4.159,0
		c1.149-1.146,1.149-3.01,0-4.159L22.703,18.543z"/>
</g>
<g id="Layer_1">
</g>
</svg>
