<?xml version="1.0" encoding="utf-8"?>
<!-- Generator: Adobe Illustrator 16.0.0, SVG Export Plug-In . SVG Version: 6.00 Build 0)  -->
<!DOCTYPE svg PUBLIC "-//W3C//DTD SVG 1.1//EN" "http://www.w3.org/Graphics/SVG/1.1/DTD/svg11.dtd">
<svg version="1.1" id="Layer_1" xmlns="http://www.w3.org/2000/svg" xmlns:xlink="http://www.w3.org/1999/xlink" x="0px" y="0px"
	 width="38px" height="29px" viewBox="0 0 38 29" enable-background="new 0 0 38 29" xml:space="preserve">
<g>
	<g>
		<path fill-rule="evenodd" clip-rule="evenodd" d="M2.5,5h33C36.881,5,38,3.881,38,2.5C38,1.12,36.881,0,35.5,0h-33
			C1.119,0,0,1.12,0,2.5C0,3.881,1.119,5,2.5,5z M35.5,12h-33C1.119,12,0,13.119,0,14.5S1.119,17,2.5,17h33
			c1.381,0,2.5-1.119,2.5-2.5S36.881,12,35.5,12z M35.5,24h-33C1.119,24,0,25.119,0,26.5S1.119,29,2.5,29h33
			c1.381,0,2.5-1.119,2.5-2.5S36.881,24,35.5,24z"/>
	</g>
</g>
</svg>
