<?xml version="1.0" encoding="utf-8"?>
<!-- Generator: Adobe Illustrator 16.0.0, SVG Export Plug-In . SVG Version: 6.00 Build 0)  -->
<!DOCTYPE svg PUBLIC "-//W3C//DTD SVG 1.1//EN" "http://www.w3.org/Graphics/SVG/1.1/DTD/svg11.dtd">
<svg version="1.1" id="Layer_1" xmlns="http://www.w3.org/2000/svg" xmlns:xlink="http://www.w3.org/1999/xlink" x="0px" y="0px"
	 width="29.27px" height="29.004px" viewBox="0 0 29.27 29.004" enable-background="new 0 0 29.27 29.004" xml:space="preserve">
<path d="M3.758-0.126h21.755c2.067,0,3.757,1.682,3.757,3.739v21.653c0,2.058-1.689,3.737-3.757,3.737H3.758
	C1.691,29.004,0,27.324,0,25.267V3.613C0,1.556,1.691-0.126,3.758-0.126z M21.321,3.109c-0.725,0-1.316,0.591-1.316,1.313v3.139
	c0,0.722,0.592,1.312,1.316,1.312h3.309c0.725,0,1.317-0.59,1.317-1.312V4.423c0-0.722-0.593-1.313-1.317-1.313H21.321z
	 M25.961,12.192h-2.576c0.244,0.795,0.377,1.632,0.377,2.502c0,4.846-4.074,8.774-9.1,8.774c-5.023,0-9.098-3.928-9.098-8.774
	c0-0.87,0.134-1.707,0.376-2.502H3.254V24.5c0,0.638,0.522,1.155,1.163,1.155h20.382c0.64,0,1.162-0.518,1.162-1.155V12.192z
	 M14.662,8.708c-3.244,0-5.877,2.538-5.877,5.67c0,3.129,2.633,5.668,5.877,5.668c3.247,0,5.879-2.539,5.879-5.668
	C20.541,11.245,17.909,8.708,14.662,8.708z"/>
</svg>
