<?xml version="1.0" encoding="iso-8859-1"?>
<!-- Generator: Adobe Illustrator 16.0.0, SVG Export Plug-In . SVG Version: 6.00 Build 0)  -->
<!DOCTYPE svg PUBLIC "-//W3C//DTD SVG 1.1//EN" "http://www.w3.org/Graphics/SVG/1.1/DTD/svg11.dtd">
<svg version="1.1" xmlns="http://www.w3.org/2000/svg" xmlns:xlink="http://www.w3.org/1999/xlink" x="0px" y="0px" width="38px"
	 height="32.001px" viewBox="0 0 38 32.001" style="enable-background:new 0 0 38 32.001;" xml:space="preserve">
<g id="Layer_17">
	<g>
		<path style="fill:#231F20;" d="M36.655,0.011L19,2.276L1.345,0.011C1.003-0.034,0.663,0.066,0.405,0.283
			C0.147,0.501,0,0.814,0,1.144v27.429c0,0.572,0.44,1.057,1.03,1.133l17.812,2.285c0.053,0.007,0.104,0.011,0.157,0.011
			c0.052,0,0.104-0.004,0.157-0.011l17.812-2.285c0.59-0.076,1.03-0.561,1.03-1.133V1.144c0-0.329-0.147-0.643-0.405-0.86
			C37.336,0.066,36.998-0.031,36.655,0.011z M2.375,2.449l15.438,1.98v25.122l-15.438-1.98V2.449z M35.625,27.571l-15.438,1.98V4.43
			l15.438-1.98V27.571z"/>
		<path style="fill:#231F20;" d="M5.79,7.991l9.5,1.143c0.05,0.006,0.1,0.009,0.149,0.009c0.59,0,1.102-0.423,1.176-1.001
			c0.082-0.626-0.38-1.198-1.03-1.276l-9.5-1.143C5.436,5.644,4.84,6.09,4.759,6.716C4.678,7.342,5.14,7.914,5.79,7.991z"/>
		<path style="fill:#231F20;" d="M15.585,12.581l-9.5-1.143c-0.649-0.082-1.245,0.366-1.326,0.993
			c-0.081,0.626,0.381,1.197,1.031,1.275l9.5,1.143c0.05,0.006,0.1,0.009,0.149,0.009c0.59,0,1.102-0.423,1.176-1.001
			C16.697,13.23,16.235,12.659,15.585,12.581z"/>
		<path style="fill:#231F20;" d="M15.585,18.296l-9.5-1.144c-0.649-0.081-1.245,0.366-1.326,0.992s0.381,1.197,1.031,1.276
			l9.5,1.143c0.05,0.006,0.1,0.009,0.149,0.009c0.59,0,1.102-0.423,1.176-1.001C16.697,18.944,16.235,18.373,15.585,18.296z"/>
		<path style="fill:#231F20;" d="M15.585,24.01l-9.5-1.143c-0.649-0.081-1.245,0.365-1.326,0.992
			c-0.081,0.626,0.381,1.197,1.031,1.275l9.5,1.143c0.05,0.006,0.1,0.009,0.149,0.009c0.59,0,1.102-0.423,1.176-1.001
			C16.697,24.659,16.235,24.088,15.585,24.01z"/>
		<path style="fill:#231F20;" d="M22.561,9.144c0.05,0,0.1-0.003,0.149-0.009l9.5-1.143c0.65-0.078,1.112-0.649,1.03-1.275
			c-0.081-0.626-0.682-1.073-1.325-0.993l-9.5,1.143c-0.65,0.078-1.112,0.65-1.031,1.276C21.459,8.72,21.971,9.144,22.561,9.144z"/>
		<path style="fill:#231F20;" d="M22.561,14.858c0.05,0,0.1-0.003,0.149-0.009l9.5-1.143c0.65-0.078,1.112-0.649,1.03-1.275
			c-0.081-0.627-0.682-1.074-1.325-0.993l-9.5,1.143c-0.65,0.078-1.112,0.649-1.031,1.275
			C21.459,14.435,21.971,14.858,22.561,14.858z"/>
		<path style="fill:#231F20;" d="M22.561,20.572c0.05,0,0.1-0.003,0.149-0.009l9.5-1.143c0.65-0.079,1.112-0.65,1.03-1.276
			c-0.081-0.626-0.682-1.073-1.325-0.992l-9.5,1.144c-0.65,0.077-1.112,0.648-1.031,1.275
			C21.459,20.149,21.971,20.572,22.561,20.572z"/>
		<path style="fill:#231F20;" d="M31.915,22.867l-9.5,1.143c-0.65,0.078-1.112,0.649-1.031,1.275
			c0.075,0.578,0.587,1.001,1.177,1.001c0.05,0,0.1-0.003,0.149-0.009l9.5-1.143c0.65-0.078,1.112-0.649,1.03-1.275
			C33.159,23.232,32.559,22.786,31.915,22.867z"/>
	</g>
</g>
<g id="Layer_1">
</g>
</svg>
