<?xml version="1.0" encoding="iso-8859-1"?>
<!-- Generator: Adobe Illustrator 16.0.0, SVG Export Plug-In . SVG Version: 6.00 Build 0)  -->
<!DOCTYPE svg PUBLIC "-//W3C//DTD SVG 1.1//EN" "http://www.w3.org/Graphics/SVG/1.1/DTD/svg11.dtd">
<svg version="1.1" xmlns="http://www.w3.org/2000/svg" xmlns:xlink="http://www.w3.org/1999/xlink" x="0px" y="0px"
	 width="21.094px" height="21.886px" viewBox="0 0 21.094 21.886" style="enable-background:new 0 0 21.094 21.886;"
	 xml:space="preserve">
<g id="Layer_40">
	<g>
		<path style="fill:#231F20;" d="M0.95,20.989c0.158,0,0.325-0.039,0.496-0.115l4.815-2.141c0.415-0.184,0.969-0.564,1.29-0.887
			L20.701,4.698c0.254-0.253,0.393-0.59,0.393-0.949S20.955,3.052,20.701,2.8l-2.408-2.408C18.041,0.14,17.703,0,17.344,0
			s-0.695,0.14-0.949,0.393L2.91,13.876c-0.324,0.326-0.701,0.891-0.877,1.316l-1.838,4.465c-0.199,0.484-0.059,0.811,0.043,0.963
			C0.396,20.854,0.654,20.989,0.95,20.989z M6.603,16.897L6.603,16.897l-2.407-2.406L15.33,3.355l2.408,2.407L6.603,16.897z
			 M17.344,1.342l2.408,2.407l-1.064,1.064l-2.408-2.407L17.344,1.342z M3.275,15.702c0.02-0.047,0.047-0.102,0.076-0.156
			l2.085,2.086L1.82,19.237L3.275,15.702z"/>
		<path style="fill-rule:evenodd;clip-rule:evenodd;fill:#231F20;" d="M0,21.886v-1h20.02v1H0z"/>
	</g>
</g>
<g id="Layer_1">
</g>
</svg>
