<?xml version="1.0" encoding="iso-8859-1"?>
<!-- Generator: Adobe Illustrator 16.0.0, SVG Export Plug-In . SVG Version: 6.00 Build 0)  -->
<!DOCTYPE svg PUBLIC "-//W3C//DTD SVG 1.1//EN" "http://www.w3.org/Graphics/SVG/1.1/DTD/svg11.dtd">
<svg version="1.1" xmlns="http://www.w3.org/2000/svg" xmlns:xlink="http://www.w3.org/1999/xlink" x="0px" y="0px"
	 width="29.997px" height="30.013px" viewBox="0 0 29.997 30.013" style="enable-background:new 0 0 29.997 30.013;"
	 xml:space="preserve">
<g id="Layer_13">
	<g>
		<path style="fill:#231F20;" d="M1.223,30.013c0.226,0,0.464-0.056,0.709-0.164l6.879-3.061c0.592-0.264,1.384-0.808,1.843-1.267
			L29.437,6.719c0.361-0.362,0.561-0.844,0.561-1.358s-0.199-0.996-0.561-1.357l-3.439-3.443C25.636,0.199,25.155,0,24.642,0
			s-0.994,0.199-1.357,0.561L4.022,19.844c-0.464,0.463-1.002,1.272-1.252,1.88l-2.627,6.384c-0.284,0.693-0.083,1.162,0.062,1.379
			C0.43,29.821,0.8,30.013,1.223,30.013z M9.297,24.163L9.297,24.163l-3.438-3.442L21.765,4.799l3.439,3.442L9.297,24.163z
			 M24.642,1.918l3.439,3.443L26.56,6.884L23.12,3.441L24.642,1.918z M4.544,22.454c0.028-0.067,0.066-0.146,0.108-0.224
			l2.979,2.981L2.465,27.51L4.544,22.454z"/>
	</g>
</g>
<g id="Layer_1">
</g>
</svg>
