<?xml version="1.0" encoding="iso-8859-1"?>
<!-- Generator: Adobe Illustrator 16.0.0, SVG Export Plug-In . SVG Version: 6.00 Build 0)  -->
<!DOCTYPE svg PUBLIC "-//W3C//DTD SVG 1.1//EN" "http://www.w3.org/Graphics/SVG/1.1/DTD/svg11.dtd">
<svg version="1.1" xmlns="http://www.w3.org/2000/svg" xmlns:xlink="http://www.w3.org/1999/xlink" x="0px" y="0px" width="58px"
	 height="64px" viewBox="0 0 58 64" style="enable-background:new 0 0 58 64;" xml:space="preserve">
<g id="Layer_25">
	<g>
		<path style="fill:#231F20;" d="M32,64c2.206,0,4-1.794,4-4V4c0-2.205-1.794-4-4-4H20c-2.206,0-4,1.795-4,4v56c0,2.206,1.794,4,4,4
			H32z M20,4h12v6h-6c-1.104,0-2,0.896-2,2s0.896,2,2,2h6v6.001h-1c-1.104,0-2,0.895-2,1.999s0.896,2,2,2h1v6h-6
			c-1.104,0-2,0.896-2,2s0.896,2,2,2h6v6h-1c-1.104,0-2,0.896-2,2s0.896,2,2,2h1v6h-6c-1.104,0-2,0.896-2,2s0.896,2,2,2h6v6H20V4z"
			/>
		<path style="fill:#231F20;" d="M6,62.949c1.12,0,2.098-0.672,2.683-1.844l2.212-4.422C11.524,55.423,12,53.409,12,52V6
			c0-2.205-1.794-4-4-4H4C1.794,2,0,3.795,0,6v46c0,1.409,0.476,3.423,1.105,4.684l2.21,4.422C3.902,62.277,4.881,62.949,6,62.949z
			 M7.315,54.895L6,57.527l-1.317-2.633C4.332,54.192,4,52.785,4,52V16h4v36C8,52.785,7.668,54.192,7.315,54.895z M8,6v6H4V6H8z"/>
		<path style="fill:#231F20;" d="M50.895,7.316l-2.212-4.422C48.098,1.723,47.12,1.051,46,1.051c-1.119,0-2.098,0.672-2.685,1.844
			l-2.21,4.422C40.476,8.577,40,10.592,40,12v46c0,2.206,1.794,4,4,4h4c2.206,0,4-1.794,4-4h2c2.206,0,4-1.794,4-4v-8
			c0-1.104-0.896-2-2-2s-2,0.896-2,2v8h-2V12C52,10.592,51.524,8.577,50.895,7.316z M48,58h-4V12c0-0.785,0.332-2.192,0.683-2.895
			L46,6.473l1.315,2.633C47.668,9.808,48,11.215,48,12V58z"/>
	</g>
</g>
<g id="Layer_1">
</g>
</svg>
