<?xml version="1.0" encoding="iso-8859-1"?>
<!-- Generator: Adobe Illustrator 16.0.0, SVG Export Plug-In . SVG Version: 6.00 Build 0)  -->
<!DOCTYPE svg PUBLIC "-//W3C//DTD SVG 1.1//EN" "http://www.w3.org/Graphics/SVG/1.1/DTD/svg11.dtd">
<svg version="1.1" xmlns="http://www.w3.org/2000/svg" xmlns:xlink="http://www.w3.org/1999/xlink" x="0px" y="0px" width="48px"
	 height="64px" viewBox="0 0 48 64" style="enable-background:new 0 0 48 64;" xml:space="preserve">
<g id="Layer_34">
	<g>
		<path d="M31,0H17c-1.104,0-2,0.896-2,2v6H2c-1.104,0-2,0.896-2,2s0.896,2,2,2h2v50c0,1.104,0.896,2,2,2h36c1.105,0,2-0.896,2-2V12
			h2c1.105,0,2-0.896,2-2s-0.895-2-2-2H33V2C33,0.896,32.105,0,31,0z M40,12v48H8V12H40z M19,8V4h10v4H19z"/>
		<path d="M18,56c1.105,0,2-0.896,2-2V20c0-1.104-0.895-2-2-2c-1.104,0-2,0.896-2,2v34C16,55.104,16.896,56,18,56z"/>
		<path d="M30,56c1.105,0,2-0.896,2-2V20c0-1.104-0.895-2-2-2c-1.104,0-2,0.896-2,2v34C28,55.104,28.896,56,30,56z"/>
	</g>
</g>
<g id="Layer_1">
</g>
</svg>
