<?xml version="1.0" encoding="iso-8859-1"?>
<!-- Generator: Adobe Illustrator 16.0.0, SVG Export Plug-In . SVG Version: 6.00 Build 0)  -->
<!DOCTYPE svg PUBLIC "-//W3C//DTD SVG 1.1//EN" "http://www.w3.org/Graphics/SVG/1.1/DTD/svg11.dtd">
<svg version="1.1" xmlns="http://www.w3.org/2000/svg" xmlns:xlink="http://www.w3.org/1999/xlink" x="0px" y="0px"
	 width="27.659px" height="25.066px" viewBox="0 0 27.659 25.066" style="enable-background:new 0 0 27.659 25.066;"
	 xml:space="preserve">
<g id="Layer_43">
	<path style="fill:#231F20;" d="M27.279,0.148c-0.237-0.16-0.539-0.193-0.806-0.086l-8.322,3.328L9.829,0.062
		c-0.207-0.082-0.436-0.082-0.642,0L0.543,3.52C0.215,3.65,0,3.969,0,4.322v19.879c0,0.287,0.143,0.555,0.38,0.717
		c0.146,0.098,0.314,0.148,0.484,0.148c0.109,0,0.218-0.021,0.321-0.062l8.322-3.328l8.322,3.328c0.207,0.082,0.436,0.082,0.643,0
		l8.644-3.457c0.327-0.131,0.543-0.449,0.543-0.803V0.865C27.659,0.578,27.517,0.309,27.279,0.148z M8.644,20.158l-6.915,2.766
		V4.906l6.915-2.766V20.158z M17.287,22.924l-6.915-2.766V2.141l6.915,2.766V22.924z M25.931,20.158l-6.915,2.766V4.906l6.915-2.766
		V20.158z"/>
</g>
<g id="Layer_1">
</g>
</svg>
