<?xml version="1.0" encoding="iso-8859-1"?>
<!-- Generator: Adobe Illustrator 16.0.0, SVG Export Plug-In . SVG Version: 6.00 Build 0)  -->
<!DOCTYPE svg PUBLIC "-//W3C//DTD SVG 1.1//EN" "http://www.w3.org/Graphics/SVG/1.1/DTD/svg11.dtd">
<svg version="1.1" xmlns="http://www.w3.org/2000/svg" xmlns:xlink="http://www.w3.org/1999/xlink" x="0px" y="0px"
	 width="70.762px" height="66.017px" viewBox="0 0 70.762 66.017" style="enable-background:new 0 0 70.762 66.017;"
	 xml:space="preserve">
<g id="Layer_26">
	<g>
		<path style="fill:#231F20;" d="M33.879,56.21c0.084-0.285,0.141-0.579,0.141-0.892c0-4.385-8.645-5.94-16.045-5.94
			c-7.402,0-16.045,1.556-16.045,5.94c0,0.312,0.055,0.606,0.139,0.89C0.793,57.08,0,58.165,0,59.516
			c0,5.132,11.299,6.501,17.975,6.501s17.974-1.369,17.974-6.501C35.949,58.165,35.154,57.081,33.879,56.21z M17.975,53.004
			c7.102,0,11.242,1.487,12.258,2.314c-1.016,0.827-5.156,2.315-12.258,2.315c-7.104,0-11.242-1.488-12.258-2.315
			C6.732,54.491,10.871,53.004,17.975,53.004z M17.975,62.39c-8.764,0-13.486-1.928-14.283-2.874
			c0.154-0.183,0.463-0.401,0.91-0.636c3.133,1.701,8.514,2.379,13.373,2.379c4.858,0,10.238-0.678,13.371-2.379
			c0.449,0.234,0.758,0.453,0.91,0.636C31.459,60.462,26.736,62.39,17.975,62.39z"/>
		<path style="fill:#231F20;" d="M69.789,46.751L53.035,29.999c-1.297-1.298-3.4-1.299-4.699,0l-2.34,2.341l-3.732-3.731
			l2.904-2.902c2.049,1.268,4.777,1.025,6.557-0.754l3.883-3.883c2.074-2.076,2.074-5.453,0-7.528L43.623,1.558
			c-2.074-2.076-5.453-2.076-7.527,0L32.211,5.44c-1.863,1.863-2.039,4.768-0.559,6.845l-8.541,8.54
			c-2.076-1.48-4.98-1.305-6.844,0.559l-3.883,3.883c-2.076,2.076-2.076,5.453,0,7.529l11.982,11.983
			c2.076,2.075,5.453,2.075,7.528,0l3.883-3.884c1.78-1.777,2.022-4.505,0.754-6.557l2.902-2.902l3.73,3.731l-2.34,2.342
			c-1.299,1.298-1.297,3.402,0,4.7l16.752,16.752c1.297,1.297,3.4,1.299,4.699,0l7.512-7.512
			C71.088,50.153,71.086,48.049,69.789,46.751z M35.039,8.269l3.883-3.883c0.518-0.516,1.355-0.516,1.873,0l11.982,11.983
			c0.516,0.517,0.516,1.356,0,1.872l-3.883,3.883c-0.516,0.516-1.355,0.516-1.871,0L35.039,10.141
			C34.523,9.624,34.523,8.784,35.039,8.269z M32.951,38.067l-3.883,3.883c-0.516,0.517-1.355,0.517-1.871,0L15.213,29.967
			c-0.516-0.516-0.516-1.355,0-1.871l3.883-3.884c0.516-0.516,1.355-0.516,1.871,0l11.984,11.984
			C33.467,36.712,33.467,37.552,32.951,38.067z M33.814,31.401l-7.811-7.811l8.415-8.414l7.81,7.811L33.814,31.401z M59.928,55.655
			L44.133,39.859l6.553-6.554L66.48,49.101L59.928,55.655z"/>
	</g>
</g>
<g id="Layer_1">
</g>
</svg>
