<?xml version="1.0" encoding="iso-8859-1"?>
<!-- Generator: Adobe Illustrator 16.0.0, SVG Export Plug-In . SVG Version: 6.00 Build 0)  -->
<!DOCTYPE svg PUBLIC "-//W3C//DTD SVG 1.1//EN" "http://www.w3.org/Graphics/SVG/1.1/DTD/svg11.dtd">
<svg version="1.1" xmlns="http://www.w3.org/2000/svg" xmlns:xlink="http://www.w3.org/1999/xlink" x="0px" y="0px"
	 width="16.139px" height="7.061px" viewBox="0 0 16.139 7.061" style="enable-background:new 0 0 16.139 7.061;"
	 xml:space="preserve">
<g id="Layer_45">
	<g>
		<path style="fill:#231F20;" d="M0.504,1.008h1.514c0.278,0,0.504-0.226,0.504-0.504C2.521,0.225,2.296,0,2.018,0H0.504
			C0.227,0,0,0.225,0,0.504C0,0.782,0.227,1.008,0.504,1.008z"/>
		<path style="fill:#231F20;" d="M15.635,0H5.548C5.27,0,5.043,0.225,5.043,0.504c0,0.278,0.227,0.504,0.505,0.504h10.087
			c0.278,0,0.504-0.226,0.504-0.504C16.139,0.225,15.913,0,15.635,0z"/>
		<path style="fill:#231F20;" d="M0.504,4.034h1.514c0.278,0,0.504-0.226,0.504-0.505c0-0.277-0.226-0.504-0.504-0.504H0.504
			C0.227,3.025,0,3.252,0,3.529C0,3.809,0.227,4.034,0.504,4.034z"/>
		<path style="fill:#231F20;" d="M15.635,3.025H5.548c-0.278,0-0.505,0.227-0.505,0.504c0,0.279,0.227,0.505,0.505,0.505h10.087
			c0.278,0,0.504-0.226,0.504-0.505C16.139,3.252,15.913,3.025,15.635,3.025z"/>
		<path style="fill:#231F20;" d="M0.504,7.061h1.514c0.278,0,0.504-0.227,0.504-0.505S2.296,6.052,2.018,6.052H0.504
			C0.227,6.052,0,6.277,0,6.556S0.227,7.061,0.504,7.061z"/>
		<path style="fill:#231F20;" d="M15.635,6.052H5.548c-0.278,0-0.505,0.226-0.505,0.504S5.27,7.061,5.548,7.061h10.087
			c0.278,0,0.504-0.227,0.504-0.505S15.913,6.052,15.635,6.052z"/>
	</g>
</g>
<g id="Layer_1">
</g>
</svg>
