<?xml version="1.0" encoding="iso-8859-1"?>
<!-- Generator: Adobe Illustrator 16.0.0, SVG Export Plug-In . SVG Version: 6.00 Build 0)  -->
<!DOCTYPE svg PUBLIC "-//W3C//DTD SVG 1.1//EN" "http://www.w3.org/Graphics/SVG/1.1/DTD/svg11.dtd">
<svg version="1.1" xmlns="http://www.w3.org/2000/svg" xmlns:xlink="http://www.w3.org/1999/xlink" x="0px" y="0px" width="24px"
	 height="32px" viewBox="0 0 24 32" style="enable-background:new 0 0 24 32;" xml:space="preserve">
<g id="Layer_16">
	<g>
		<path style="fill:#231F20;" d="M22,32c1.103,0,2-0.897,2-2V2c0-1.103-0.897-2-2-2H9C8.181,0,7.166,0.42,6.586,1L1,6.585
			C0.421,7.165,0,8.18,0,9v21c0,1.103,0.897,2,2,2H22z M22,2v28l0,0H2V9h5c1.103,0,2-0.897,2-2V2H22z M7,3.414V7H3.414L7,3.414z"/>
		<path style="fill:#231F20;" d="M12,10.236h6c0.552,0,1-0.448,1-1s-0.448-1-1-1h-6c-0.553,0-1,0.447-1,1S11.447,10.236,12,10.236z"
			/>
		<path style="fill:#231F20;" d="M18,13.235H6c-0.553,0-1,0.448-1,1c0,0.552,0.447,1,1,1h12c0.552,0,1-0.448,1-1
			C19,13.683,18.552,13.235,18,13.235z"/>
		<path style="fill:#231F20;" d="M18,18.234H6c-0.553,0-1,0.449-1,1.002c0,0.551,0.447,0.999,1,0.999h12c0.552,0,1-0.448,1-0.999
			C19,18.684,18.552,18.234,18,18.234z"/>
		<path style="fill:#231F20;" d="M18,23.236H6c-0.553,0-1,0.447-1,0.999s0.447,1.001,1,1.001h12c0.552,0,1-0.449,1-1.001
			S18.552,23.236,18,23.236z"/>
	</g>
</g>
<g id="Layer_1">
</g>
</svg>
