<?xml version="1.0" encoding="iso-8859-1"?>
<!-- Generator: Adobe Illustrator 16.0.0, SVG Export Plug-In . SVG Version: 6.00 Build 0)  -->
<!DOCTYPE svg PUBLIC "-//W3C//DTD SVG 1.1//EN" "http://www.w3.org/Graphics/SVG/1.1/DTD/svg11.dtd">
<svg version="1.1" xmlns="http://www.w3.org/2000/svg" xmlns:xlink="http://www.w3.org/1999/xlink" x="0px" y="0px" width="53px"
	 height="63.066px" viewBox="0 0 53 63.066" style="enable-background:new 0 0 53 63.066;" xml:space="preserve">
<g id="Layer_23">
	<g>
		<path style="fill:#231F20;" d="M16.764,0H7C5.895,0,5,0.896,5,2v54c0,1.105,0.895,2,2,2h44c1.104,0,2-0.895,2-2V2
			c0-1.104-0.896-2-2-2h-9.766 M43.234,4H49v50H9V4h5.764"/>
		<path style="fill:#231F20;" d="M43,28.898H25c-1.105,0-2,0.896-2,2c0,1.105,0.895,2,2,2h18c1.105,0,2-0.895,2-2
			C45,29.795,44.105,28.898,43,28.898z"/>
		<path style="fill:#231F20;" d="M43,36.369H25c-1.105,0-2,0.896-2,2c0,1.105,0.895,2,2,2h18c1.105,0,2-0.895,2-2
			C45,37.266,44.105,36.369,43,36.369z"/>
		<path style="fill:#231F20;" d="M43,43.648H25c-1.105,0-2,0.896-2,2s0.895,2,2,2h18c1.105,0,2-0.896,2-2S44.105,43.648,43,43.648z"
			/>
		<path style="fill:#231F20;" d="M17,28.898h-2c-1.105,0-2,0.896-2,2c0,1.105,0.895,2,2,2h2c1.104,0,2-0.895,2-2
			C19,29.795,18.104,28.898,17,28.898z"/>
		<path style="fill:#231F20;" d="M43,21.523H25c-1.105,0-2,0.896-2,2c0,1.105,0.895,2,2,2h18c1.105,0,2-0.895,2-2
			C45,22.42,44.105,21.523,43,21.523z"/>
		<path style="fill:#231F20;" d="M43,9.678H15c-1.105,0-2,0.896-2,2c0,1.105,0.895,2,2,2h28c1.105,0,2-0.895,2-2
			C45,10.574,44.105,9.678,43,9.678z"/>
		<path style="fill:#231F20;" d="M17,21.523h-2c-1.105,0-2,0.896-2,2c0,1.105,0.895,2,2,2h2c1.104,0,2-0.895,2-2
			C19,22.42,18.104,21.523,17,21.523z"/>
		<path style="fill:#231F20;" d="M17,36.369h-2c-1.105,0-2,0.896-2,2c0,1.105,0.895,2,2,2h2c1.104,0,2-0.895,2-2
			C19,37.266,18.104,36.369,17,36.369z"/>
		<path style="fill:#231F20;" d="M17,43.648h-2c-1.105,0-2,0.896-2,2s0.895,2,2,2h2c1.104,0,2-0.896,2-2S18.104,43.648,17,43.648z"
			/>
		<path style="fill:#231F20;" d="M44,54.167v4.899L3.5,59.033v-50l3.334,0.033v-4H2c-1.104,0-2,0.896-2,2v54c0,1.105,0.896,2,2,2h44
			c1.105,0,2-0.895,2-2v-6.899H44z"/>
	</g>
</g>
<g id="Layer_1">
</g>
</svg>
