<?xml version="1.0" encoding="iso-8859-1"?>
<!-- Generator: Adobe Illustrator 16.0.0, SVG Export Plug-In . SVG Version: 6.00 Build 0)  -->
<!DOCTYPE svg PUBLIC "-//W3C//DTD SVG 1.1//EN" "http://www.w3.org/Graphics/SVG/1.1/DTD/svg11.dtd">
<svg version="1.1" xmlns="http://www.w3.org/2000/svg" xmlns:xlink="http://www.w3.org/1999/xlink" x="0px" y="0px" width="71px"
	 height="71.002px" viewBox="0 0 71 71.002" style="enable-background:new 0 0 71 71.002;" xml:space="preserve">
<g id="Layer_35">
	<g>
		<path style="fill:#231F20;" d="M35.5,0c-9.481,0-18.396,3.693-25.102,10.399C3.693,17.104,0,26.02,0,35.501
			s3.693,18.397,10.398,25.102c6.705,6.706,15.62,10.399,25.102,10.399s18.396-3.693,25.102-10.399
			C67.308,53.898,71,44.982,71,35.501s-3.692-18.396-10.398-25.102C53.896,3.693,44.981,0,35.5,0z M57.465,57.465
			c-5.868,5.868-13.668,9.1-21.965,9.1c-8.296,0-16.097-3.231-21.964-9.1c-5.868-5.867-9.098-13.667-9.098-21.964
			s3.23-16.097,9.099-21.965C19.403,7.669,27.204,4.438,35.5,4.438c8.297,0,16.097,3.231,21.965,9.099
			c5.867,5.868,9.098,13.668,9.098,21.965S63.332,51.598,57.465,57.465z"/>
		<path style="fill:#231F20;" d="M46.855,33.757L31.325,21.554c-0.668-0.524-1.578-0.622-2.342-0.252
			c-0.763,0.372-1.248,1.146-1.248,1.996v24.406c0,0.85,0.485,1.624,1.248,1.995c0.309,0.15,0.64,0.224,0.971,0.224
			c0.487,0,0.973-0.161,1.372-0.475l15.531-12.203c0.535-0.42,0.848-1.063,0.848-1.744C47.703,34.821,47.391,34.177,46.855,33.757z
			 M32.172,43.139V27.863l9.721,7.638L32.172,43.139z"/>
	</g>
</g>
<g id="Layer_1">
</g>
</svg>
