<?xml version="1.0" encoding="iso-8859-1"?>
<!-- Generator: Adobe Illustrator 16.0.0, SVG Export Plug-In . SVG Version: 6.00 Build 0)  -->
<!DOCTYPE svg PUBLIC "-//W3C//DTD SVG 1.1//EN" "http://www.w3.org/Graphics/SVG/1.1/DTD/svg11.dtd">
<svg version="1.1" xmlns="http://www.w3.org/2000/svg" xmlns:xlink="http://www.w3.org/1999/xlink" x="0px" y="0px"
	 width="19.822px" height="26.43px" viewBox="0 0 19.822 26.43" style="enable-background:new 0 0 19.822 26.43;"
	 xml:space="preserve">
<g id="Layer_41">
	<g>
		<path style="fill:#231F20;" d="M14.965,2.478l-1.011-2.021C13.814,0.177,13.527,0,13.215,0H6.607C6.295,0,6.009,0.177,5.869,0.456
			l-1.01,2.021H0.826C0.37,2.478,0,2.848,0,3.304v22.3c0,0.456,0.37,0.826,0.826,0.826h18.17c0.457,0,0.826-0.37,0.826-0.826v-22.3
			c0-0.456-0.369-0.826-0.826-0.826H14.965z M7.118,1.651h5.587l1.651,3.305H5.466L7.118,1.651z M18.17,24.778H1.652V4.13h2.38
			L3.391,5.412c-0.128,0.257-0.115,0.56,0.036,0.804C3.578,6.459,3.844,6.607,4.13,6.607h11.563h0.008
			c0.456,0,0.825-0.37,0.825-0.825c0-0.174-0.052-0.334-0.143-0.467L15.79,4.13h2.38V24.778z"/>
		<path style="fill:#231F20;" d="M15.693,9.675H8.26c-0.457,0-0.826,0.369-0.826,0.826c0,0.455,0.37,0.826,0.826,0.826h7.434
			c0.455,0,0.826-0.371,0.826-0.826C16.52,10.044,16.148,9.675,15.693,9.675z"/>
		<path style="fill:#231F20;" d="M15.693,14.722H8.26c-0.457,0-0.826,0.369-0.826,0.826c0,0.455,0.37,0.826,0.826,0.826h7.434
			c0.455,0,0.826-0.371,0.826-0.826C16.52,15.091,16.148,14.722,15.693,14.722z"/>
		<path style="fill:#231F20;" d="M15.693,19.638H8.26c-0.457,0-0.826,0.369-0.826,0.826c0,0.455,0.37,0.825,0.826,0.825h7.434
			c0.455,0,0.826-0.37,0.826-0.825C16.52,20.007,16.148,19.638,15.693,19.638z"/>
		<path style="fill:#231F20;" d="M4.956,9.675H4.13c-0.456,0-0.826,0.369-0.826,0.826c0,0.455,0.37,0.826,0.826,0.826h0.826
			c0.456,0,0.826-0.371,0.826-0.826C5.782,10.044,5.412,9.675,4.956,9.675z"/>
		<path style="fill:#231F20;" d="M4.956,14.722H4.13c-0.456,0-0.826,0.369-0.826,0.826c0,0.455,0.37,0.826,0.826,0.826h0.826
			c0.456,0,0.826-0.371,0.826-0.826C5.782,15.091,5.412,14.722,4.956,14.722z"/>
		<path style="fill:#231F20;" d="M4.956,19.638H4.13c-0.456,0-0.826,0.369-0.826,0.826c0,0.455,0.37,0.825,0.826,0.825h0.826
			c0.456,0,0.826-0.37,0.826-0.825C5.782,20.007,5.412,19.638,4.956,19.638z"/>
	</g>
</g>
<g id="Layer_1">
</g>
</svg>
