<?xml version="1.0" encoding="iso-8859-1"?>
<!-- Generator: Adobe Illustrator 16.0.0, SVG Export Plug-In . SVG Version: 6.00 Build 0)  -->
<!DOCTYPE svg PUBLIC "-//W3C//DTD SVG 1.1//EN" "http://www.w3.org/Graphics/SVG/1.1/DTD/svg11.dtd">
<svg version="1.1" xmlns="http://www.w3.org/2000/svg" xmlns:xlink="http://www.w3.org/1999/xlink" x="0px" y="0px" width="35.84px"
	 height="47.787px" viewBox="0 0 35.84 47.787" style="enable-background:new 0 0 35.84 47.787;" xml:space="preserve">
<g id="Layer_9">
	<g>
		<path style="fill:#231F20;" d="M34.348,47.787c0.824,0,1.492-0.669,1.492-1.493V5.974c0-0.825-0.668-1.494-1.492-1.494h-7.291
			l-1.828-3.655C24.977,0.319,24.459,0,23.893,0H11.947c-0.566,0-1.083,0.319-1.336,0.825L8.784,4.48H1.493
			C0.668,4.48,0,5.148,0,5.974v40.32c0,0.824,0.668,1.493,1.493,1.493H34.348z M12.869,2.987h10.102l2.986,5.973H9.882L12.869,2.987
			z M2.987,7.467H7.29L6.131,9.786c-0.231,0.463-0.207,1.013,0.065,1.453c0.272,0.44,0.753,0.708,1.271,0.708h20.906h0.014
			c0.826,0,1.494-0.668,1.494-1.494c0-0.312-0.096-0.602-0.258-0.841l-1.074-2.146h4.305v37.334H2.987V7.467z"/>
		<path style="fill:#231F20;" d="M22.836,21.345l-6.409,6.41l-3.424-3.424c-0.583-0.583-1.528-0.583-2.113,0
			c-0.583,0.584-0.583,1.528,0,2.111l4.48,4.48c0.292,0.291,0.675,0.438,1.057,0.438c0.382,0,0.764-0.146,1.056-0.438l7.466-7.467
			c0.584-0.583,0.584-1.528,0-2.111C24.365,20.761,23.422,20.761,22.836,21.345z"/>
	</g>
</g>
<g id="Layer_1">
</g>
</svg>
