<?xml version="1.0" encoding="iso-8859-1"?>
<!-- Generator: Adobe Illustrator 16.0.0, SVG Export Plug-In . SVG Version: 6.00 Build 0)  -->
<!DOCTYPE svg PUBLIC "-//W3C//DTD SVG 1.1//EN" "http://www.w3.org/Graphics/SVG/1.1/DTD/svg11.dtd">
<svg version="1.1" xmlns="http://www.w3.org/2000/svg" xmlns:xlink="http://www.w3.org/1999/xlink" x="0px" y="0px" width="32px"
	 height="28px" viewBox="0 0 32 28" style="enable-background:new 0 0 32 28;" xml:space="preserve">
<g id="Layer_44">
	<g>
		<path style="fill:#231F20;" d="M16,10c-0.552,0-1,0.448-1,1v13.586l-2.293-2.293c-0.391-0.391-1.021-0.391-1.413,0
			c-0.391,0.391-0.391,1.023,0,1.414l4,4C15.489,27.902,15.745,28,16,28c0.257,0,0.513-0.098,0.708-0.293l4-4
			c0.391-0.391,0.391-1.023,0-1.414c-0.392-0.391-1.022-0.391-1.414,0L17,24.588V11C16.999,10.5,16.553,10,16,10z"/>
		<path style="fill:#231F20;" d="M31,0H1C0.447,0,0,0.448,0,1v18c0,0.553,0.447,1,1,1h11c0.553,0,1-0.447,1-1c0-0.552-0.447-1-1-1H2
			V2h28v16H20c-0.553,0-1,0.448-1,1c0,0.553,0.447,1,1,1h11c0.552,0,1-0.447,1-1V1C32,0.448,31.552,0,31,0z"/>
	</g>
</g>
<g id="Layer_1">
</g>
</svg>
