<?xml version="1.0" encoding="iso-8859-1"?>
<!-- Generator: Adobe Illustrator 16.0.0, SVG Export Plug-In . SVG Version: 6.00 Build 0)  -->
<!DOCTYPE svg PUBLIC "-//W3C//DTD SVG 1.1//EN" "http://www.w3.org/Graphics/SVG/1.1/DTD/svg11.dtd">
<svg version="1.1" xmlns="http://www.w3.org/2000/svg" xmlns:xlink="http://www.w3.org/1999/xlink" x="0px" y="0px"
	 width="28.953px" height="28.953px" viewBox="0 0 28.953 28.953" style="enable-background:new 0 0 28.953 28.953;"
	 xml:space="preserve">
<g id="Layer_38">
	<g>
		<path style="fill:#231F20;" d="M14.477,0C10.61,0,6.975,1.506,4.24,4.24S0,10.609,0,14.477c0,3.866,1.506,7.502,4.24,10.235
			c2.734,2.735,6.37,4.241,10.236,4.241c3.867,0,7.502-1.506,10.236-4.241c2.734-2.733,4.24-6.369,4.24-10.235
			c0-3.867-1.506-7.502-4.24-10.236S18.344,0,14.477,0z M23.434,23.433c-2.393,2.394-5.574,3.71-8.957,3.71s-6.564-1.316-8.957-3.71
			c-2.393-2.392-3.71-5.573-3.71-8.956c0-3.384,1.317-6.564,3.71-8.957c2.393-2.393,5.574-3.711,8.957-3.711
			s6.564,1.318,8.957,3.711s3.711,5.573,3.711,8.957C27.145,17.859,25.826,21.041,23.434,23.433z"/>
		<path style="fill:#231F20;" d="M21.166,16.359l-5.785-2.48V4.523c0-0.5-0.405-0.904-0.904-0.904s-0.905,0.404-0.905,0.904v9.953
			c0,0.361,0.216,0.689,0.549,0.831l6.334,2.714c0.115,0.051,0.236,0.074,0.355,0.074c0.352,0,0.686-0.206,0.832-0.549
			C21.84,17.088,21.627,16.556,21.166,16.359z"/>
		<path style="fill:#231F20;" d="M5.429,13.571H4.524c-0.5,0-0.905,0.405-0.905,0.905s0.405,0.904,0.905,0.904h0.905
			c0.5,0,0.905-0.404,0.905-0.904S5.929,13.571,5.429,13.571z"/>
		<path style="fill:#231F20;" d="M22.619,14.477c0,0.5,0.406,0.904,0.906,0.904h0.904c0.5,0,0.904-0.404,0.904-0.904
			s-0.404-0.905-0.904-0.905h-0.904C23.025,13.571,22.619,13.977,22.619,14.477z"/>
		<path style="fill:#231F20;" d="M14.477,22.619c-0.5,0-0.905,0.405-0.905,0.904v0.905c0,0.499,0.405,0.905,0.905,0.905
			s0.904-0.406,0.904-0.905v-0.905C15.381,23.024,14.976,22.619,14.477,22.619z"/>
	</g>
</g>
<g id="Layer_1">
</g>
</svg>
