<?xml version="1.0" encoding="iso-8859-1"?>
<!-- Generator: Adobe Illustrator 16.0.0, SVG Export Plug-In . SVG Version: 6.00 Build 0)  -->
<!DOCTYPE svg PUBLIC "-//W3C//DTD SVG 1.1//EN" "http://www.w3.org/Graphics/SVG/1.1/DTD/svg11.dtd">
<svg version="1.1" xmlns="http://www.w3.org/2000/svg" xmlns:xlink="http://www.w3.org/1999/xlink" x="0px" y="0px"
	 width="37.222px" height="42.54px" viewBox="0 0 37.222 42.54" style="enable-background:new 0 0 37.222 42.54;"
	 xml:space="preserve">
<g id="Layer_28">
	<g>
		<path style="fill:#231F20;" d="M34.559,11.846c-0.062-0.686-0.637-1.211-1.325-1.211h-2.658h-3.987V7.978
			C26.588,3.578,23.01,0,18.611,0c-4.398,0-7.976,3.578-7.976,7.978v2.657H6.647H3.988c-0.688,0-1.262,0.525-1.324,1.211
			L0.005,41.091c-0.033,0.371,0.091,0.74,0.343,1.015C0.6,42.383,0.956,42.54,1.33,42.54h34.563c0.374,0,0.729-0.157,0.981-0.435
			c0.252-0.274,0.376-0.644,0.343-1.015L34.559,11.846z M13.294,7.978c0-2.934,2.386-5.317,5.317-5.317
			c2.932,0,5.317,2.384,5.317,5.317v2.657H13.294V7.978z M2.786,39.881l2.416-26.587h1.445h3.988v3.027
			c-0.792,0.461-1.33,1.309-1.33,2.29c0,1.468,1.191,2.658,2.659,2.658s2.659-1.19,2.659-2.658c0-0.981-0.538-1.829-1.329-2.29
			v-3.027h10.634v3.027c-0.791,0.461-1.328,1.309-1.328,2.29c0,1.468,1.189,2.658,2.658,2.658s2.658-1.19,2.658-2.658
			c0-0.981-0.537-1.829-1.328-2.29v-3.027h3.987h1.444l2.416,26.587H2.786z"/>
	</g>
</g>
<g id="Layer_1">
</g>
</svg>
