<?xml version="1.0" encoding="iso-8859-1"?>
<!-- Generator: Adobe Illustrator 16.0.0, SVG Export Plug-In . SVG Version: 6.00 Build 0)  -->
<!DOCTYPE svg PUBLIC "-//W3C//DTD SVG 1.1//EN" "http://www.w3.org/Graphics/SVG/1.1/DTD/svg11.dtd">
<svg version="1.1" xmlns="http://www.w3.org/2000/svg" xmlns:xlink="http://www.w3.org/1999/xlink" x="0px" y="0px" width="55px"
	 height="55.001px" viewBox="0 0 55 55.001" style="enable-background:new 0 0 55 55.001;" xml:space="preserve">
<g id="Layer_8">
	<g>
		<path style="fill:#231F20;" d="M50,0H5C2.239,0,0,2.239,0,5v45c0,2.762,2.239,5.001,5,5.001h45c2.76,0,5-2.239,5-5.001V5
			C55,2.239,52.76,0,50,0z M38.672,28.603l-7.871,7.799c-0.291,0.289-0.674,0.434-1.055,0.434c-0.387,0-0.773-0.147-1.066-0.443
			c-0.582-0.589-0.577-1.539,0.01-2.121l5.352-5.303H17.383c-0.828,0-1.5-0.672-1.5-1.5s0.672-1.5,1.5-1.5h16.543l-5.24-5.242
			c-0.586-0.585-0.586-1.534,0-2.12c0.586-0.587,1.535-0.587,2.121,0l7.871,7.871c0.281,0.283,0.439,0.665,0.439,1.064
			C39.115,27.939,38.957,28.321,38.672,28.603z"/>
	</g>
</g>
<g id="Layer_1">
</g>
</svg>
