<?xml version="1.0" encoding="iso-8859-1"?>
<!-- Generator: Adobe Illustrator 16.0.0, SVG Export Plug-In . SVG Version: 6.00 Build 0)  -->
<!DOCTYPE svg PUBLIC "-//W3C//DTD SVG 1.1//EN" "http://www.w3.org/Graphics/SVG/1.1/DTD/svg11.dtd">
<svg version="1.1" xmlns="http://www.w3.org/2000/svg" xmlns:xlink="http://www.w3.org/1999/xlink" x="0px" y="0px" width="13.99px"
	 height="12.01px" viewBox="0 0 13.99 12.01" style="enable-background:new 0 0 13.99 12.01;" xml:space="preserve">
<g id="Layer_14">
	<g>
		<path style="fill:#231F20;" d="M13.727,5.347l-4.74-5.063c-0.354-0.377-0.924-0.377-1.277,0c-0.353,0.377-0.353,0.987,0,1.364
			l3.156,3.372H0.903C0.404,5.019,0,5.451,0,5.983c0,0.533,0.404,0.966,0.903,0.966h10.032l-3.224,3.41
			c-0.354,0.375-0.357,0.985-0.006,1.364c0.176,0.19,0.409,0.286,0.642,0.286c0.23,0,0.459-0.094,0.637-0.279l4.738-5.017
			c0.172-0.181,0.268-0.427,0.268-0.683C13.992,5.774,13.896,5.528,13.727,5.347z"/>
	</g>
</g>
<g id="Layer_1">
</g>
</svg>
