<?xml version="1.0" encoding="utf-8"?>
<!-- Generator: Adobe Illustrator 16.0.0, SVG Export Plug-In . SVG Version: 6.00 Build 0)  -->
<!DOCTYPE svg PUBLIC "-//W3C//DTD SVG 1.1//EN" "http://www.w3.org/Graphics/SVG/1.1/DTD/svg11.dtd">
<svg version="1.1" id="Layer_1" xmlns="http://www.w3.org/2000/svg" xmlns:xlink="http://www.w3.org/1999/xlink" x="0px" y="0px"
	 width="33.011px" height="26.701px" viewBox="0 0 33.011 26.701" enable-background="new 0 0 33.011 26.701" xml:space="preserve">
<path d="M33.011,3.159C31.795,3.697,30.49,4.06,29.12,4.222c1.398-0.835,2.475-2.154,2.979-3.729
	c-1.307,0.773-2.757,1.334-4.3,1.636C26.563,0.819,24.802,0,22.854,0c-3.739,0-6.772,3.019-6.772,6.74
	c0,0.531,0.06,1.045,0.175,1.537C10.629,7.995,5.639,5.314,2.298,1.233c-0.582,0.996-0.917,2.153-0.917,3.39
	c0,2.338,1.196,4.403,3.013,5.611C3.283,10.2,2.239,9.895,1.325,9.389v0.086c0,3.265,2.335,5.991,5.432,6.61
	c-0.566,0.153-1.166,0.237-1.782,0.237c-0.437,0-0.861-0.043-1.275-0.122c0.862,2.68,3.362,4.626,6.326,4.684
	c-2.317,1.807-5.236,2.885-8.411,2.885c-0.546,0-1.085-0.033-1.614-0.096c2.996,1.912,6.557,3.028,10.384,3.028
	c12.455,0,19.268-10.271,19.268-19.178c0-0.292-0.008-0.583-0.02-0.875C30.953,5.7,32.102,4.513,33.011,3.159z"/>
</svg>
